<svg width="48" height="48" xmlns="http://www.w3.org/2000/svg" xmlns:xlink="http://www.w3.org/1999/xlink" overflow="hidden"><defs><clipPath id="clip0"><rect x="12" y="97" width="48" height="48"/></clipPath></defs><g clip-path="url(#clip0)" transform="translate(-12 -97)"><path d="M51 129.8 44.155 118.89C44.0325 118.69 43.8144 118.569 43.58 118.57 43.3445 118.57 43.1255 118.691 43 118.89L41 122.1 45.29 129.04C45.653 129.589 45.7311 130.279 45.5 130.895L50.35 130.895C50.7472 130.915 51.0852 130.609 51.105 130.212 51.1123 130.067 51.0756 129.924 51 129.8Z" fill="#F2F2F2"/><path d="M43.55 129.865 32.675 112.17C32.5354 111.99 32.3178 111.887 32.09 111.895L32 111.895 31.91 111.895C31.6821 111.887 31.4646 111.99 31.325 112.17L20.45 129.865C20.2959 130.081 20.2747 130.364 20.395 130.6 20.5163 130.814 20.7568 130.931 21 130.895L43 130.895C43.2432 130.931 43.4837 130.814 43.605 130.6 43.7253 130.364 43.704 130.081 43.55 129.865ZM33.82 120.46 32.09 122 30.36 120.46 27.5 122.19 32 114.895 36.38 122Z" fill="#F2F2F2"/><path d="M27 113C27 113.828 26.3284 114.5 25.5 114.5 24.6716 114.5 24 113.828 24 113 24 112.172 24.6716 111.5 25.5 111.5 26.3284 111.5 27 112.172 27 113Z" fill="#F2F2F2"/><path d="M19 134 19 109 53 109 53 134ZM56 137 56 106 16 106 16 137Z" fill="#F2F2F2"/></g></svg>