<svg width="58" height="58" xmlns="http://www.w3.org/2000/svg" xmlns:xlink="http://www.w3.org/1999/xlink" overflow="hidden"><defs><clipPath id="clip0"><rect x="357" y="393" width="58" height="58"/></clipPath></defs><g clip-path="url(#clip0)" transform="translate(-357 -393)"><path d="M366.762 442.334C379.055 447.422 392.862 447.443 405.171 442.395 406.688 441.82 407.452 440.125 406.877 438.608 406.851 438.539 406.822 438.47 406.791 438.403 406.288 437.306 405.189 436.604 403.982 436.61 403.597 436.61 403.215 436.68 402.855 436.816L402.838 436.823 402.819 436.83C402.731 436.867 402.638 436.897 402.551 436.933L385.94 397.485 369.35 436.884C369.265 436.85 369.178 436.821 369.094 436.786 368.71 436.617 368.293 436.54 367.875 436.56 366.673 436.562 365.583 437.263 365.083 438.356L365.072 438.381 365.061 438.407C364.47 439.961 365.224 441.702 366.762 442.334ZM391.268 413.253C390.758 414.664 389.201 415.393 387.791 414.883 386.381 414.373 385.652 412.816 386.162 411.406 386.551 410.33 387.574 409.613 388.719 409.615 389.106 409.615 389.488 409.699 389.839 409.86ZM385.94 400.599 389.243 408.444C387.095 408.147 385.112 409.648 384.815 411.796 384.518 413.945 386.018 415.927 388.167 416.224 389.591 416.421 391.01 415.824 391.864 414.667L401.421 437.368C391.435 441.061 380.454 441.044 370.479 437.318ZM366.183 438.856C366.486 438.194 367.147 437.769 367.875 437.769 368.123 437.75 368.372 437.791 368.6 437.89 379.704 442.46 392.159 442.482 403.279 437.95 403.504 437.865 403.742 437.821 403.982 437.821 404.719 437.819 405.388 438.247 405.696 438.917 406.101 439.781 405.729 440.811 404.864 441.216 404.82 441.237 404.775 441.256 404.729 441.273 392.706 446.208 379.218 446.186 367.21 441.212 366.291 440.83 365.837 439.79 366.183 438.856Z" stroke="#F98607" stroke-width="2.81942" fill="#F98607"/><path d="M393.552 436.802C395.721 436.802 397.479 435.044 397.479 432.875 397.479 430.706 395.721 428.948 393.552 428.948 391.383 428.948 389.625 430.706 389.625 432.875 389.628 435.043 391.384 436.799 393.552 436.802ZM393.552 430.156C395.054 430.156 396.271 431.373 396.271 432.875 396.271 434.377 395.054 435.594 393.552 435.594 392.051 435.594 390.833 434.377 390.833 432.875 390.835 431.374 392.051 430.158 393.552 430.156Z" stroke="#F98607" stroke-width="2.81942" fill="#F98607"/><path d="M381.469 423.51C379.3 423.51 377.542 425.269 377.542 427.438 377.542 429.606 379.3 431.365 381.469 431.365 383.638 431.365 385.396 429.606 385.396 427.438 385.393 425.27 383.637 423.513 381.469 423.51ZM381.469 430.156C379.967 430.156 378.75 428.939 378.75 427.438 378.75 425.936 379.967 424.719 381.469 424.719 382.97 424.719 384.188 425.936 384.188 427.438 384.186 428.938 382.97 430.155 381.469 430.156Z" stroke="#F98607" stroke-width="2.81942" fill="#F98607"/></g></svg>