<svg width="48" height="48" xmlns="http://www.w3.org/2000/svg" xmlns:xlink="http://www.w3.org/1999/xlink" overflow="hidden"><defs><clipPath id="clip0"><rect x="26" y="145" width="48" height="48"/></clipPath></defs><g clip-path="url(#clip0)" transform="translate(-26 -145)"><path d="M64.3503 165.848C66.9137 174.873 61.6753 184.268 52.6498 186.831 43.6245 189.395 34.2299 184.156 31.6665 175.131 29.103 166.105 34.3414 156.711 43.3669 154.147 46.7293 153.192 50.3046 153.298 53.605 154.449L54.884 151.186C52.7311 150.419 50.465 150.019 48.1797 150.001 48.1189 150.001 48.0597 150.001 47.9993 150.001 36.6778 150.001 27.4999 159.178 27.5 170.5 27.5 181.753 36.5714 190.902 47.824 190.999 47.8853 190.999 47.9455 190.999 48.0066 190.999 59.3316 190.993 68.5072 181.808 68.501 170.483 68.5 168.496 68.2101 166.52 67.6406 164.616ZM61.6697 184.407C58.0322 188.002 53.1204 190.012 48.0063 189.999 47.9484 189.999 47.8906 189.999 47.8327 189.999 37.0639 189.904 28.4106 181.098 28.505 170.329 28.5988 159.629 37.2985 151.003 47.9993 151.001 48.0564 151.001 48.1138 151.001 48.1709 151.001 49.9982 151.017 51.8144 151.289 53.5658 151.81L53.0213 153.216C43.4757 150.45 33.4949 155.945 30.7283 165.491 27.9617 175.036 33.4571 185.017 43.0027 187.784 44.5771 188.24 46.2065 188.479 47.8456 188.494 47.8993 188.495 47.9526 188.495 48.0061 188.495 57.9263 188.511 65.9818 180.483 65.9985 170.563 66.0007 169.188 65.8452 167.818 65.535 166.479L66.955 165.959C67.3343 167.5 67.5174 169.083 67.5 170.669 67.4693 175.843 65.3699 180.79 61.6697 184.407Z" stroke="#F2F2F2" stroke-width="1.12283" fill="#FFFFFF"/><path d="M49.8774 156.21C48.8634 155.196 47.2196 155.196 46.2057 156.21 45.1919 157.224 45.1922 158.868 46.2062 159.882 46.6866 160.362 47.3363 160.635 48.0156 160.642 48.0303 160.642 48.0449 160.643 48.0595 160.643 48.7364 160.645 49.3867 160.38 49.8683 159.904 50.8892 158.886 50.8932 157.233 49.8774 156.21ZM49.1674 159.191C48.8713 159.498 48.4577 159.662 48.0322 159.642 47.6004 159.635 47.1889 159.458 46.8878 159.148 46.2583 158.519 46.2568 157.499 46.8845 156.868 47.1804 156.578 47.5789 156.416 47.9935 156.418 48.4342 156.418 48.8561 156.596 49.1642 156.911 49.7937 157.54 49.7951 158.56 49.1672 159.191Z" stroke="#F2F2F2" stroke-width="1.12283" fill="#FFFFFF"/><path d="M51.4573 183.896C51.9422 184.393 52.6042 184.678 53.2985 184.689 53.3132 184.689 53.3279 184.689 53.3425 184.689 54.0193 184.692 54.6696 184.427 55.1514 183.951 56.174 182.915 56.1636 181.247 55.1279 180.224 54.6453 179.748 53.9975 179.475 53.3193 179.464 52.6273 179.449 51.9587 179.716 51.4662 180.202 50.4454 181.221 50.4414 182.873 51.4573 183.896ZM52.1673 180.915C52.4626 180.624 52.8611 180.462 53.2757 180.464 53.2845 180.464 53.2937 180.464 53.3025 180.464 53.7342 180.471 54.1457 180.648 54.4468 180.958 55.0762 181.587 55.0777 182.607 54.45 183.238 54.1514 183.541 53.7397 183.704 53.315 183.689 52.8832 183.682 52.4718 183.505 52.1707 183.195 51.5412 182.566 51.5397 181.546 52.1674 180.915Z" stroke="#F2F2F2" stroke-width="1.12283" fill="#FFFFFF"/><path d="M40.9797 161.284C40.1562 160.46 38.8202 160.459 37.9957 161.283 37.1712 162.106 37.1705 163.442 37.994 164.267 38.3844 164.657 38.9126 164.88 39.465 164.885 39.4767 164.886 39.4887 164.886 39.5004 164.886 40.0507 164.888 40.5793 164.672 40.9711 164.286 41.8008 163.459 41.8046 162.116 40.9797 161.284ZM40.27 163.573C39.8232 164.002 39.1128 163.988 38.6833 163.541 38.6832 163.541 38.6832 163.541 38.6831 163.541 38.2445 163.104 38.2426 162.394 38.679 161.954 38.8846 161.752 39.1614 161.64 39.4494 161.641 39.7569 161.641 40.0513 161.765 40.2661 161.985 40.7046 162.423 40.7064 163.133 40.27 163.573Z" stroke="#F2F2F2" stroke-width="1.12283" fill="#FFFFFF"/><path d="M62.3881 173.972C63.2192 173.131 63.2118 171.776 62.3714 170.945 61.9794 170.558 61.4527 170.336 60.9013 170.327 60.8896 170.327 60.8777 170.327 60.866 170.327 60.3157 170.325 59.787 170.54 59.3952 170.927 58.564 171.766 58.5706 173.12 59.41 173.952 59.811 174.349 60.3525 174.571 60.9167 174.571 61.4669 174.572 61.9955 174.357 62.3881 173.972ZM60.1 173.227C59.6615 172.789 59.6598 172.079 60.0961 171.64 60.3014 171.438 60.5782 171.325 60.8661 171.327L60.885 171.327C61.1861 171.332 61.4731 171.456 61.6831 171.671 62.1218 172.1 62.1303 172.802 61.7021 173.241 61.2739 173.68 60.5712 173.688 60.1325 173.26 60.1214 173.249 60.1106 173.238 60.1 173.227Z" stroke="#F2F2F2" stroke-width="1.12283" fill="#FFFFFF"/><path d="M45.3884 171.823C44.9947 171.419 44.4571 171.188 43.8934 171.18 43.3302 171.163 42.7851 171.38 42.3873 171.779 41.5561 172.619 41.5628 173.973 42.4021 174.804 42.803 175.201 43.3446 175.424 43.9088 175.423 44.4589 175.425 44.9874 175.21 45.38 174.824 46.2095 173.997 46.2133 172.655 45.3884 171.823ZM44.6791 174.111C44.2248 174.543 43.5065 174.525 43.0746 174.07 42.6527 173.627 42.6588 172.928 43.0881 172.492 43.2935 172.29 43.5704 172.178 43.8584 172.179L43.8769 172.179C44.178 172.184 44.465 172.308 44.675 172.524 45.1136 172.961 45.1155 173.671 44.6791 174.111Z" stroke="#F2F2F2" stroke-width="1.12283" fill="#FFFFFF"/><path d="M52.9338 177.002C54.077 176.983 54.9935 176.05 54.9924 174.907 55.0006 173.741 54.0627 172.79 52.8974 172.782 51.732 172.774 50.7808 173.712 50.7725 174.877 50.7643 176.04 51.6981 176.99 52.8605 177.002 52.8722 177.002 52.9211 177.002 52.9338 177.002ZM52.0746 174.071C52.2803 173.869 52.5572 173.757 52.8451 173.758 53.4781 173.76 53.9904 174.273 53.9924 174.906 53.9937 175.2 53.8757 175.483 53.6655 175.689 53.4517 175.889 53.1698 176.001 52.8766 176.002 52.5756 175.997 52.2887 175.873 52.0788 175.657 51.6404 175.22 51.6385 174.51 52.0746 174.071Z" stroke="#F2F2F2" stroke-width="1.12283" fill="#FFFFFF"/><path d="M41.3054 183.272C41.7081 183.683 42.2595 183.914 42.8349 183.914 43.9898 183.917 44.9288 182.984 44.9321 181.829 44.9321 181.826 44.9321 181.823 44.9321 181.82 44.9404 180.641 43.9915 179.679 42.8127 179.671 42.2537 179.667 41.7155 179.882 41.3137 180.271 40.9118 180.664 40.686 181.203 40.6877 181.766 40.6864 182.33 40.9083 182.871 41.305 183.272ZM42.0146 180.983C42.2292 180.784 42.5106 180.672 42.8035 180.67 43.429 180.684 43.9299 181.193 43.9321 181.819 43.9333 182.113 43.8155 182.396 43.6052 182.602 43.1581 183.031 42.4484 183.017 42.0185 182.571 41.8064 182.357 41.6874 182.068 41.6877 181.767 41.6866 181.472 41.8045 181.19 42.0146 180.983Z" stroke="#F2F2F2" stroke-width="1.12283" fill="#FFFFFF"/><path d="M46.9655 168.959C47.5159 168.962 48.0445 168.746 48.436 168.359 49.2862 167.542 49.3134 166.191 48.4967 165.341 47.68 164.491 46.3287 164.463 45.4785 165.28 44.6283 166.097 44.6012 167.448 45.4179 168.298 45.4235 168.304 45.4293 168.31 45.435 168.316L45.4352 168.316C45.8291 168.719 46.3666 168.95 46.9303 168.959 46.9418 168.959 46.9538 168.959 46.9655 168.959ZM46.1445 166.027C46.3553 165.822 46.6392 165.71 46.9333 165.714 47.2344 165.719 47.5214 165.843 47.7314 166.059 48.1701 166.496 48.1716 167.206 47.735 167.646 47.5272 167.856 47.2414 167.969 46.9464 167.959 46.6453 167.954 46.3582 167.831 46.1481 167.615 45.7096 167.177 45.708 166.467 46.1445 166.027Z" stroke="#F2F2F2" stroke-width="1.12283" fill="#FFFFFF"/><path d="M72.5309 159.77C70.0849 153.873 65.4086 149.181 59.52 146.716 58.6046 146.307 57.5314 146.718 57.1228 147.634 57.105 147.673 57.0887 147.714 57.0738 147.755 56.7369 148.674 57.1583 149.698 58.0444 150.113L50.394 168.891 69.1458 161.251C69.24 161.456 69.372 161.641 69.5348 161.797 69.8877 162.148 70.3647 162.346 70.8624 162.347 71.0869 162.347 71.3094 162.307 71.5196 162.228L71.5413 162.22 71.5626 162.211C72.4935 161.794 72.923 160.711 72.5309 159.77ZM54.7608 160.824C55.2787 160.544 55.9255 160.737 56.2055 161.254 56.2897 161.41 56.3339 161.585 56.3337 161.762 56.3328 162.352 55.8544 162.829 55.2651 162.828 54.7998 162.827 54.3885 162.525 54.2487 162.081ZM52.2162 167.069 53.79 163.206C53.7953 163.212 53.8 163.218 53.8053 163.224 54.612 164.031 55.9207 164.032 56.7284 163.225 57.536 162.419 57.5368 161.11 56.7301 160.302 56.3307 159.902 55.785 159.684 55.22 159.697L58.9567 150.525C63.2534 152.567 66.7097 156.035 68.7373 160.338ZM71.1685 161.292C70.8468 161.412 70.4845 161.333 70.2419 161.09 70.1528 161.014 70.0836 160.917 70.0404 160.808 67.862 155.582 63.716 151.421 58.4971 149.225 58.0624 149.036 57.8502 148.541 58.0136 148.097 58.1303 147.774 58.4365 147.559 58.7796 147.558 58.8977 147.558 59.0143 147.584 59.1216 147.633 64.7762 149.997 69.2662 154.501 71.6116 160.164 71.7907 160.598 71.5952 161.096 71.1685 161.292Z" stroke="#F2F2F2" stroke-width="1.12283" fill="#FFFFFF"/><path d="M61.6665 152.991C60.8594 152.184 59.5507 152.184 58.7434 152.991 57.9361 153.798 57.936 155.107 58.7431 155.914 59.5503 156.721 60.859 156.721 61.6662 155.914 61.6664 155.914 61.6664 155.914 61.6665 155.914L61.6668 155.914C62.4738 155.107 62.4737 153.798 61.6665 152.991ZM60.9594 155.207 60.9594 155.207C60.5374 155.61 59.8729 155.61 59.4509 155.207 59.0342 154.79 59.0342 154.115 59.4508 153.698 59.8675 153.282 60.543 153.281 60.9596 153.698 61.3763 154.115 61.3764 154.79 60.9597 155.207 60.9597 155.207 60.9596 155.207 60.9596 155.207Z" stroke="#F2F2F2" stroke-width="1.12283" fill="#FFFFFF"/><path d="M60.8027 158.541C59.9956 159.348 59.9957 160.657 60.8028 161.464 61.61 162.271 62.9187 162.271 63.7258 161.464 64.5329 160.657 64.5329 159.348 63.7258 158.541 62.9182 157.735 61.6104 157.735 60.8027 158.541ZM63.0187 160.757C62.6021 161.173 61.9269 161.173 61.5107 160.756 61.0943 160.34 61.0947 159.664 61.5113 159.248 61.9277 158.832 62.6023 158.832 63.0187 159.248 63.4346 159.665 63.4346 160.34 63.0187 160.757Z" stroke="#F2F2F2" stroke-width="1.12283" fill="#FFFFFF"/><path d="M36.9 170.312C37.7836 170.312 38.5 171.029 38.5 171.913 38.5 172.796 37.7836 173.512 36.9 173.512 36.0163 173.512 35.3 172.796 35.3 171.913 35.301 171.029 36.0168 170.314 36.9 170.312M36.9 169.312C35.4641 169.312 34.3 170.477 34.3 171.913 34.3 173.348 35.4641 174.512 36.9 174.512 38.3359 174.512 39.5 173.348 39.5 171.913 39.5 170.477 38.3359 169.312 36.9 169.312Z" stroke="#F2F2F2" stroke-width="1.12283" fill="#FFFFFF"/></g></svg>