<svg width="1996" height="521" xmlns="http://www.w3.org/2000/svg" xmlns:xlink="http://www.w3.org/1999/xlink" overflow="hidden"><defs><clipPath id="clip0"><rect x="1172" y="1220" width="1996" height="521"/></clipPath></defs><g clip-path="url(#clip0)" transform="translate(-1172 -1220)"><text fill="#F2F2F2" font-family="Righteous,Righteous_MSFontService,sans-serif" font-weight="700" font-size="248" transform="translate(1321.33 1531)">P i <tspan font-size="248" x="356.354" y="0">z </tspan><tspan font-size="248" x="544.844" y="0">z</tspan><tspan font-size="248" x="664.01" y="0">    </tspan><tspan font-size="248" x="941.302" y="0">H u s t</tspan></text><path d="M2021.81 1598.2C2091.72 1627.15 2170.22 1627.27 2240.21 1598.54 2248.84 1595.27 2253.18 1585.63 2249.91 1577 2249.76 1576.6 2249.6 1576.21 2249.42 1575.83 2246.56 1569.59 2240.32 1565.59 2233.45 1565.63 2231.26 1565.63 2229.09 1566.03 2227.04 1566.8L2226.94 1566.84 2226.84 1566.88C2226.33 1567.09 2225.81 1567.26 2225.31 1567.46L2130.86 1343 2036.53 1567.19C2036.05 1567 2035.55 1566.83 2035.07 1566.63 2032.89 1565.67 2030.52 1565.23 2028.14 1565.35 2021.31 1565.35 2015.11 1569.34 2012.27 1575.56L2012.2 1575.71 2012.14 1575.86C2008.78 1584.69 2013.07 1594.6 2021.81 1598.2ZM2161.16 1432.73C2158.26 1440.75 2149.41 1444.9 2141.39 1442 2133.37 1439.09 2129.22 1430.24 2132.12 1422.21 2134.34 1416.09 2140.15 1412.01 2146.66 1412.02 2148.86 1412.02 2151.04 1412.5 2153.03 1413.42ZM2130.86 1360.72 2149.64 1405.36C2137.43 1403.67 2126.15 1412.21 2124.46 1424.43 2122.77 1436.66 2131.31 1447.94 2143.52 1449.63 2151.62 1450.75 2159.69 1447.35 2164.55 1440.77L2218.89 1569.94C2162.11 1590.96 2099.66 1590.86 2042.95 1569.66ZM2018.52 1578.41C2020.24 1574.64 2024 1572.22 2028.14 1572.22 2029.55 1572.11 2030.97 1572.35 2032.26 1572.91 2095.4 1598.92 2166.23 1599.04 2229.45 1573.25 2230.73 1572.77 2232.09 1572.52 2233.45 1572.52 2237.64 1572.51 2241.45 1574.95 2243.19 1578.75 2245.5 1583.67 2243.38 1589.53 2238.47 1591.84 2238.22 1591.96 2237.96 1592.06 2237.7 1592.16 2169.33 1620.24 2092.64 1620.12 2024.36 1591.82 2019.13 1589.64 2016.56 1583.72 2018.52 1578.41Z" stroke="#F2F2F2" stroke-width="16.0417" stroke-miterlimit="8" fill="#F2F2F2" fill-rule="evenodd"/><path d="M2174.5 1567C2186.93 1567 2197 1556.93 2197 1544.5 2197 1532.07 2186.93 1522 2174.5 1522 2162.07 1522 2152 1532.07 2152 1544.5 2152.02 1556.92 2162.08 1566.98 2174.5 1567ZM2174.5 1528.92C2183.1 1528.92 2190.08 1535.9 2190.08 1544.5 2190.08 1553.1 2183.1 1560.08 2174.5 1560.08 2165.9 1560.08 2158.92 1553.1 2158.92 1544.5 2158.93 1535.9 2165.9 1528.93 2174.5 1528.92Z" stroke="#F2F2F2" stroke-width="16.0417" stroke-miterlimit="8" fill="#F2F2F2" fill-rule="evenodd"/><path d="M2105.5 1491C2093.07 1491 2083 1501.07 2083 1513.5 2083 1525.93 2093.07 1536 2105.5 1536 2117.93 1536 2128 1525.93 2128 1513.5 2127.98 1501.08 2117.92 1491.02 2105.5 1491ZM2105.5 1529.08C2096.9 1529.08 2089.92 1522.1 2089.92 1513.5 2089.92 1504.9 2096.9 1497.92 2105.5 1497.92 2114.1 1497.92 2121.08 1504.9 2121.08 1513.5 2121.07 1522.1 2114.1 1529.07 2105.5 1529.08Z" stroke="#F2F2F2" stroke-width="16.0417" stroke-miterlimit="8" fill="#F2F2F2" fill-rule="evenodd"/></g></svg>