<svg width="48" height="48" xmlns="http://www.w3.org/2000/svg" xmlns:xlink="http://www.w3.org/1999/xlink" overflow="hidden"><defs><clipPath id="clip0"><rect x="24" y="449" width="48" height="48"/></clipPath></defs><g clip-path="url(#clip0)" transform="translate(-24 -449)"><path d="M65.1465 455.854C60.7402 451.448 53.5956 451.447 49.1887 455.853 49.1883 455.854 49.188 455.854 49.1876 455.854 46.5579 458.484 45.5 465.843 43.9683 468.627 40.9587 474.096 38.11 474.407 39.9293 477.081L36.0373 480.973C35.0283 478.874 32.509 477.991 30.4104 479 28.3119 480.009 27.4286 482.528 28.4376 484.627 29.4466 486.726 31.9659 487.609 34.0644 486.6 34.4608 486.409 34.825 486.158 35.1436 485.855 35.188 485.812 35.1879 485.812 35.1456 485.857 33.5375 487.553 33.6087 490.231 35.3045 491.839 36.939 493.389 39.5014 493.387 41.1333 491.834 42.3261 490.644 42.7159 488.868 42.1312 487.288 41.7922 486.249 41.0275 485.404 40.0279 484.962L43.9195 481.071C44.3479 481.409 44.8685 481.609 45.4128 481.645 46.9939 481.645 48.092 479.341 52.4316 477.09 55.2733 475.616 62.5183 474.441 65.1466 471.813 69.5529 467.406 69.5529 460.261 65.1465 455.854ZM39.3208 484.255C38.9301 484.646 38.93 485.279 39.3204 485.669 39.4008 485.75 39.4945 485.816 39.5974 485.865 41.1975 486.637 41.8694 488.559 41.0982 490.159 40.3269 491.759 38.4044 492.431 36.8043 491.66 35.2042 490.889 34.5322 488.966 35.3036 487.366 35.4613 487.039 35.6735 486.74 35.9311 486.484 36.3216 486.093 36.3216 485.46 35.9311 485.069 35.5406 484.679 34.9074 484.679 34.5168 485.069 33.2543 486.383 31.166 486.425 29.8524 485.162 28.5387 483.9 28.4972 481.811 29.7597 480.498 31.0222 479.184 33.1105 479.142 34.4242 480.405 34.7204 480.69 34.9608 481.027 35.1331 481.4 35.369 481.899 35.965 482.113 36.4644 481.877 36.5684 481.828 36.6631 481.761 36.7444 481.68L40.547 477.877C40.8829 478.27 41.2929 478.707 41.7939 479.208 42.2959 479.71 42.7311 480.115 43.1247 480.451ZM64.4395 471.106C62.9465 472.599 59.4118 473.683 56.5717 474.554 54.997 474.981 53.4587 475.532 51.9711 476.202 50.2535 477.1 48.6508 478.202 47.1981 479.485 46.4015 480.158 45.8259 480.645 45.4128 480.645 44.7244 480.645 43.4212 479.422 42.501 478.501 41.6033 477.604 40.4043 476.33 40.356 475.637 40.327 475.223 40.7503 474.704 41.5639 473.747 42.8225 472.324 43.9225 470.769 44.8445 469.109 45.574 467.546 46.1569 465.918 46.5857 464.248 47.458 461.324 48.4467 458.009 49.895 456.561 53.9285 452.562 60.4402 452.59 64.4393 456.624 68.4142 460.633 68.4142 467.096 64.4395 471.106Z" stroke="#F2F2F2" stroke-width="1.33333" fill="#FFFFFF"/></g></svg>