<svg width="39" height="38" xmlns="http://www.w3.org/2000/svg" xmlns:xlink="http://www.w3.org/1999/xlink" overflow="hidden"><defs><clipPath id="clip0"><rect x="981" y="32" width="39" height="38"/></clipPath></defs><g clip-path="url(#clip0)" transform="translate(-981 -32)"><path d="M12.2708 12.2708 7.91667 12.2708 7.91667 9.5 12.2708 9.5 12.2708 12.2708ZM18.2083 9.5 18.2083 12.2708 13.8542 12.2708 13.8542 9.5 18.2083 9.5ZM24.1458 9.5 24.1458 12.2708 19.7917 12.2708 19.7917 9.5 24.1458 9.5ZM30.0833 9.5 30.0833 12.2708 25.7292 12.2708 25.7292 9.5 30.0833 9.5ZM30.0833 16.625 25.7292 16.625 25.7292 13.8542 30.0833 13.8542 30.0833 16.625ZM30.0833 19.9896 25.7292 20.3854 25.7292 18.2083 30.0833 18.2083 30.0833 19.9896ZM12.2708 18.2083 12.2708 21.5729 7.91667 21.9688 7.91667 18.2083 12.2708 18.2083ZM12.2708 16.625 7.91667 16.625 7.91667 13.8542 12.2708 13.8542 12.2708 16.625ZM18.2083 16.625 13.8542 16.625 13.8542 13.8542 18.2083 13.8542 18.2083 16.625ZM19.7917 16.625 19.7917 13.8542 24.1458 13.8542 24.1458 16.625 19.7917 16.625ZM18.2083 21.0583 13.8542 21.4542 13.8542 18.2083 18.2083 18.2083 18.2083 21.0583ZM19.7917 18.2083 24.1458 18.2083 24.1458 20.5042 19.7917 20.9 19.7917 18.2083ZM32.4583 22.1667 32.4583 7.125 7.91667 7.125 7.91667 6.72917C7.91667 4.75 6.33333 3.16667 4.35417 3.16667 3.68125 3.16667 3.16667 3.68125 3.16667 4.35417 3.16667 5.02708 3.68125 5.54167 4.35417 5.54167 5.02708 5.54167 5.54167 6.05625 5.54167 6.72917L5.54167 26.5208C5.54167 28.5 7.125 30.0833 9.10417 30.0833L10.2917 30.0833 27.7083 30.0833 31.2708 30.0833C31.9438 30.0833 32.4583 29.5688 32.4583 28.8958 32.4583 28.2229 31.9438 27.7083 31.2708 27.7083L9.10417 27.7083C8.43125 27.7083 7.91667 27.1938 7.91667 26.5208L7.91667 24.3438 32.4583 22.1667Z" fill="#F98607" transform="matrix(1.02632 0 0 1 981 32)"/><path d="M12.6667 32.4583C12.6667 33.77 11.6033 34.8333 10.2917 34.8333 8.97999 34.8333 7.91667 33.77 7.91667 32.4583 7.91667 31.1467 8.97999 30.0833 10.2917 30.0833 11.6033 30.0833 12.6667 31.1467 12.6667 32.4583Z" fill="#F98607" transform="matrix(1.02632 0 0 1 981 32)"/><path d="M30.0833 32.4583C30.0833 33.77 29.02 34.8333 27.7083 34.8333 26.3967 34.8333 25.3333 33.77 25.3333 32.4583 25.3333 31.1467 26.3967 30.0833 27.7083 30.0833 29.02 30.0833 30.0833 31.1467 30.0833 32.4583Z" fill="#F98607" transform="matrix(1.02632 0 0 1 981 32)"/></g></svg>