<svg width="48" height="48" xmlns="http://www.w3.org/2000/svg" xmlns:xlink="http://www.w3.org/1999/xlink" overflow="hidden"><defs><clipPath id="clip0"><rect x="12" y="165" width="48" height="48"/></clipPath></defs><g clip-path="url(#clip0)" transform="translate(-12 -165)"><path d="M24.43 187.837C24.7061 188.315 25.3176 188.479 25.7959 188.203 25.8451 188.174 25.8918 188.142 25.9355 188.105 26.3124 187.773 26.3967 187.218 26.1355 186.788L24.0405 183.162C23.7646 182.684 23.153 182.519 22.6747 182.795 22.6742 182.796 22.6739 182.796 22.6735 182.796L19.05 184.889C18.5876 185.144 18.3888 185.704 18.5875 186.193 18.8134 186.697 19.4051 186.922 19.909 186.697 19.9401 186.683 19.9705 186.667 20 186.65L21.5025 185.779C21.5089 185.774 21.5176 185.776 21.5219 185.782 21.5243 185.785 21.525 185.79 21.524 185.794 19.9808 193.929 25.3251 201.776 33.461 203.319 33.5679 203.339 33.6751 203.359 33.7825 203.376 33.8371 203.385 33.8923 203.39 33.9475 203.39 34.4998 203.391 34.9486 202.945 34.9499 202.392 34.95 202.368 34.9492 202.344 34.9475 202.32 34.9021 201.844 34.5355 201.461 34.0615 201.395 26.9843 200.178 22.2337 193.454 23.4506 186.377 23.4561 186.345 23.4618 186.313 23.4675 186.281 23.469 186.273 23.4769 186.267 23.4854 186.268 23.4898 186.269 23.4937 186.272 23.496 186.275Z" fill="#F2F2F2"/><path d="M41.5585 199.208C41.8319 198.728 41.6645 198.117 41.1847 197.844 41.1546 197.826 41.1236 197.811 41.092 197.797 40.6023 197.601 40.0434 197.803 39.792 198.266L37.718 201.9C37.4443 202.38 37.6113 202.99 38.0909 203.264 38.0911 203.264 38.0913 203.264 38.0915 203.264L41.7305 205.34C42.1618 205.599 42.7165 205.511 43.047 205.132 43.3976 204.705 43.3357 204.075 42.9089 203.725 42.865 203.688 42.8179 203.656 42.7685 203.628L41.2395 202.76C41.2325 202.756 41.2299 202.747 41.2337 202.74 41.2355 202.737 41.2385 202.735 41.242 202.734 49.0597 199.978 53.1637 191.407 50.4085 183.59 50.3854 183.524 50.3619 183.459 50.338 183.394 50.1618 182.899 49.6418 182.615 49.13 182.734 48.5963 182.876 48.2787 183.424 48.4207 183.958 48.429 183.989 48.4388 184.02 48.45 184.05 50.952 190.786 47.52 198.274 40.7844 200.776 40.7563 200.786 40.7281 200.797 40.7 200.807 40.692 200.81 40.6831 200.806 40.68 200.798 40.6785 200.794 40.6788 200.789 40.681 200.785Z" fill="#F2F2F2"/><path d="M45.9915 177.138C45.9911 177.146 45.9842 177.153 45.9759 177.152 45.9726 177.152 45.9695 177.151 45.967 177.149 39.6551 171.789 30.1928 172.56 24.8324 178.872 24.8216 178.885 24.8107 178.897 24.8 178.91 24.4721 179.288 24.4636 179.848 24.78 180.236 25.1392 180.655 25.7705 180.704 26.19 180.345 26.2317 180.309 26.2703 180.27 26.3055 180.228 30.8821 174.768 39.0026 174.015 44.5055 178.54 44.513 178.546 44.5137 178.557 44.5071 178.565 44.5039 178.569 44.4994 178.571 44.4945 178.571L42.758 178.571C42.2057 178.571 41.7579 179.018 41.7576 179.571 41.7576 179.627 41.7624 179.684 41.772 179.74 41.8717 180.233 42.31 180.583 42.8125 180.572L46.8705 180.572C46.9081 180.578 46.9459 180.583 46.984 180.585 47.1773 180.583 47.3662 180.526 47.5275 180.419 47.5505 180.405 47.572 180.389 47.594 180.373 47.605 180.365 47.6165 180.359 47.627 180.35 47.6375 180.342 47.6395 180.336 47.6465 180.33 47.667 180.312 47.6895 180.298 47.7085 180.28 47.8956 180.092 48.0005 179.837 48 179.572L48 175.383C48.0112 174.88 47.6604 174.441 47.1675 174.342 46.623 174.249 46.1067 174.616 46.0141 175.16 46.0047 175.216 46 175.273 46 175.329Z" fill="#F2F2F2"/><path d="M32.3545 182.245 29.1105 184.211 36.271 188.551 39.515 186.585 32.3545 182.245Z" fill="#F2F2F2"/><path d="M43.432 184.211 36.271 179.871 33.19 181.737 40.3505 186.077 43.432 184.211Z" fill="#F2F2F2"/><path d="M29.1105 185.947 29.1105 192.891 35.837 196.968 35.837 189.306 29.1105 185.23 29.1105 185.947Z" fill="#F2F2F2"/><path d="M39.092 190.503 37.573 191.372 37.573 189.853 39.092 188.984ZM36.705 189.3 36.705 196.968 43.432 192.891 43.432 185.227Z" fill="#F2F2F2"/></g></svg>