<svg width="48" height="48" xmlns="http://www.w3.org/2000/svg" xmlns:xlink="http://www.w3.org/1999/xlink" overflow="hidden"><defs><clipPath id="clip0"><rect x="12" y="299" width="48" height="48"/></clipPath></defs><g clip-path="url(#clip0)" transform="translate(-12 -299)"><path d="M23.5 340 23.5 306 36 306 36 316.5 48.5 316.5 48.5 340 23.5 340ZM39 307.25 45.25 313.5 39 313.5 39 307.25ZM39 303 20.5 303 20.5 343 51.5 343 51.5 314 39 303Z" fill="#F2F2F2"/><path d="M26.5 321.5 45.5 321.5 45.5 323.5 26.5 323.5Z" fill="#F2F2F2"/><path d="M26.5 317.5 33 317.5 33 319.5 26.5 319.5Z" fill="#F2F2F2"/><path d="M26.5 325.5 45.5 325.5 45.5 327.5 26.5 327.5Z" fill="#F2F2F2"/><path d="M26.5 329.5 45.5 329.5 45.5 331.5 26.5 331.5Z" fill="#F2F2F2"/><path d="M26.5 333.5 45.5 333.5 45.5 335.5 26.5 335.5Z" fill="#F2F2F2"/></g></svg>