<svg width="19" height="19" xmlns="http://www.w3.org/2000/svg" xmlns:xlink="http://www.w3.org/1999/xlink" overflow="hidden"><defs><clipPath id="clip0"><rect x="561" y="243" width="19" height="19"/></clipPath></defs><g clip-path="url(#clip0)" transform="translate(-561 -243)"><path d="M577.922 257.962 575.448 255.489C575.111 255.152 574.656 255.033 574.221 255.113L573.35 254.242C574.122 253.252 574.577 251.985 574.577 250.64 574.577 247.374 571.905 244.702 568.64 244.702 565.374 244.702 562.702 247.374 562.702 250.64 562.702 253.905 565.374 256.577 568.64 256.577 569.985 256.577 571.232 256.122 572.242 255.35L573.112 256.221C573.033 256.656 573.152 257.111 573.489 257.448L575.963 259.922C576.24 260.199 576.596 260.337 576.952 260.337 577.308 260.337 577.665 260.199 577.942 259.922 578.456 259.368 578.456 258.497 577.922 257.962ZM568.62 255.37C566.007 255.37 563.87 253.232 563.87 250.62 563.87 248.007 566.007 245.87 568.62 245.87 571.232 245.87 573.37 248.007 573.37 250.62 573.37 253.232 571.232 255.37 568.62 255.37Z" fill="#404040"/></g></svg>