<svg width="38" height="38" xmlns="http://www.w3.org/2000/svg" xmlns:xlink="http://www.w3.org/1999/xlink" overflow="hidden"><defs><clipPath id="clip0"><rect x="227" y="664" width="38" height="38"/></clipPath></defs><g clip-path="url(#clip0)" transform="translate(-227 -664)"><path d="M256.294 696.458 256.294 667.166 235.71 667.166 235.71 696.458 230.96 696.458 230.96 698.833 235.71 698.833 236.502 698.833 238.085 698.833 238.085 669.541 253.919 669.541 253.919 698.833 255.502 698.833 256.294 698.833 261.044 698.833 261.044 696.458 256.294 696.458Z" fill="#FFFFFF"/><path d="M239.273 698.833 250.752 697.25 250.752 672.312 239.273 670.729ZM246.396 684.583 248.157 684.583C248.237 684.154 248.593 683.831 249.028 683.792 249.543 683.792 249.958 684.323 249.958 684.979 249.958 685.635 249.542 686.167 249.029 686.167 248.594 686.128 248.238 685.804 248.158 685.375L246.396 685.375Z" fill="#FFFFFF"/></g></svg>