<svg width="57" height="58" xmlns="http://www.w3.org/2000/svg" xmlns:xlink="http://www.w3.org/1999/xlink" overflow="hidden"><defs><clipPath id="clip0"><rect x="822" y="406" width="57" height="58"/></clipPath></defs><g clip-path="url(#clip0)" transform="translate(-822 -406)"><path d="M47.4068 8.51616C35.3249 3.5168 21.7567 3.49546 9.65912 8.45678 8.16852 9.02156 7.41796 10.6878 7.98273 12.1784 8.00856 12.2465 8.03694 12.3137 8.06787 12.3797 8.5617 13.4582 9.64137 14.1477 10.8276 14.1419 11.2061 14.1415 11.5814 14.0729 11.9356 13.9395L11.9528 13.9329 11.9706 13.9258C12.0579 13.8896 12.1487 13.8599 12.2348 13.8249L28.5594 52.5926 44.8626 13.8724C44.9463 13.9056 45.0318 13.9347 45.1149 13.9692 45.4916 14.1346 45.9016 14.2105 46.3125 14.1906 47.4934 14.1894 48.5652 13.5 49.0562 12.426L49.0675 12.4011 49.0776 12.3755C49.6585 10.8489 48.9176 9.13728 47.4068 8.51616ZM23.3225 37.0957C23.8239 35.71 25.3537 34.9931 26.7395 35.4944 28.1252 35.9959 28.8421 37.5257 28.3408 38.9114 27.958 39.9692 26.953 40.6734 25.8281 40.6719 25.4479 40.6716 25.0722 40.5891 24.7267 40.4302ZM28.5594 49.5324 25.3127 41.822C27.4241 42.1141 29.3725 40.6393 29.6646 38.5279 29.9567 36.4165 28.4819 34.4681 26.3706 34.1761 24.9706 33.9823 23.5766 34.5694 22.7371 35.7063L13.3445 13.3974C23.1589 9.76737 33.9508 9.78464 43.7534 13.4461ZM47.975 11.9344C47.678 12.5855 47.0281 13.0032 46.3125 13.0031 46.0689 13.0219 45.8244 12.9812 45.6 12.8844 34.6876 8.39248 22.4467 8.37116 11.5188 12.825 11.2979 12.9085 11.0638 12.9515 10.8276 12.9521 10.1038 12.9537 9.44579 12.5328 9.14375 11.875 8.74528 11.0253 9.11109 10.0134 9.96081 9.61495 10.0043 9.59458 10.0487 9.576 10.0938 9.55937 21.91 4.70968 35.165 4.73102 46.9656 9.61875 47.8693 9.99436 48.3149 11.0167 47.975 11.9344Z" stroke="#0D0B0C" stroke-width="2.77081" fill="#0D0B0C" transform="matrix(-1.8692e-16 -1.01754 1 -1.83697e-16 822 464)"/><path d="M21.0781 13.9531C18.9466 13.9531 17.2188 15.681 17.2188 17.8125 17.2188 19.944 18.9466 21.6719 21.0781 21.6719 23.2096 21.6719 24.9375 19.944 24.9375 17.8125 24.9349 15.6821 23.2085 13.9557 21.0781 13.9531ZM21.0781 20.4844C19.6025 20.4844 18.4062 19.2881 18.4062 17.8125 18.4062 16.3369 19.6025 15.1406 21.0781 15.1406 22.5538 15.1406 23.75 16.3369 23.75 17.8125 23.7483 19.2874 22.5531 20.4827 21.0781 20.4844Z" stroke="#0D0B0C" stroke-width="2.77081" fill="#0D0B0C" transform="matrix(-1.8692e-16 -1.01754 1 -1.83697e-16 822 464)"/><path d="M32.9531 27.0156C35.0846 27.0156 36.8125 25.2878 36.8125 23.1562 36.8125 21.0247 35.0846 19.2969 32.9531 19.2969 30.8216 19.2969 29.0938 21.0247 29.0938 23.1562 29.0964 25.2866 30.8228 27.013 32.9531 27.0156ZM32.9531 20.4844C34.4288 20.4844 35.625 21.6806 35.625 23.1562 35.625 24.6319 34.4288 25.8281 32.9531 25.8281 31.4775 25.8281 30.2812 24.6319 30.2812 23.1562 30.2829 21.6813 31.4782 20.486 32.9531 20.4844Z" stroke="#0D0B0C" stroke-width="2.77081" fill="#0D0B0C" transform="matrix(-1.8692e-16 -1.01754 1 -1.83697e-16 822 464)"/></g></svg>