<svg width="48" height="48" xmlns="http://www.w3.org/2000/svg" xmlns:xlink="http://www.w3.org/1999/xlink" overflow="hidden"><defs><clipPath id="clip0"><rect x="12" y="232" width="48" height="48"/></clipPath></defs><g clip-path="url(#clip0)" transform="translate(-12 -232)"><path d="M17.5 263.5 17.5 275 29 275 29 263.5ZM21 267 19 267 19 265 21 265Z" fill="#F2F2F2"/><path d="M30.5 263.5 30.5 275 42 275 42 263.5ZM34 267 32 267 32 265 34 265Z" fill="#F2F2F2"/><path d="M24 250.5 24 262 35.5 262 35.5 250.5ZM27.5 254 25.5 254 25.5 252 27.5 252Z" fill="#F2F2F2"/><path d="M37 250.5 37 262 48.5 262 48.5 250.5ZM40.5 254 38.5 254 38.5 252 40.5 252Z" fill="#F2F2F2"/><path d="M30.5 237.5 30.5 249 42 249 42 237.5ZM34 241 32 241 32 239 34 239Z" fill="#F2F2F2"/><path d="M43.5 263.5 43.5 275 54.5 275 54.5 263.5ZM47 267 45 267 45 265 47 265Z" fill="#F2F2F2"/></g></svg>