<svg width="77" height="77" xmlns="http://www.w3.org/2000/svg" xmlns:xlink="http://www.w3.org/1999/xlink" overflow="hidden"><defs><clipPath id="clip0"><rect x="26" y="221" width="77" height="77"/></clipPath></defs><g clip-path="url(#clip0)" transform="translate(-26 -221)"><path d="M80.0067 251.479 78.6704 251.479 78.6704 249.875C78.6585 242.622 73.2709 236.501 66.0777 235.569L66.5886 229.64 77.286 226.583C77.7162 226.478 77.9796 226.044 77.8742 225.613 77.7688 225.183 77.3345 224.92 76.9042 225.025 76.8848 225.03 76.8656 225.035 76.8465 225.042L65.6173 228.25C65.2974 228.341 65.067 228.62 65.0382 228.952L64.4767 235.449C64.3965 235.449 64.3163 235.436 64.2361 235.436 56.2664 235.445 49.8079 241.904 49.7986 249.873L49.7986 251.478 48.4583 251.478C48.0153 251.478 47.6562 251.837 47.6562 252.28 47.6562 252.723 48.0153 253.082 48.4583 253.082L49.87 253.082 53.8804 293.988 74.5854 293.988 78.5958 253.082 80.0107 253.082C80.4537 253.082 80.8128 252.723 80.8128 252.28 80.8128 251.837 80.4537 251.478 80.0107 251.478ZM77.0662 249.875 77.0662 251.479 64.7061 251.479 65.9437 237.168C72.306 238.029 77.0556 243.455 77.0662 249.875ZM51.3996 249.875C51.408 242.791 57.1487 237.05 64.2329 237.042 64.269 237.042 64.3043 237.046 64.3404 237.047L63.0964 251.479 51.3996 251.479ZM62.9576 253.083 61.8531 265.917 52.7374 265.917 51.4782 253.083ZM73.1304 292.385 55.3346 292.385 52.8947 267.521 75.5687 267.521ZM75.7292 265.917 63.4613 265.917 64.5674 253.083 76.9836 253.083Z" fill="#FFFFFF"/></g></svg>