<svg width="77" height="77" xmlns="http://www.w3.org/2000/svg" xmlns:xlink="http://www.w3.org/1999/xlink" overflow="hidden"><defs><clipPath id="clip0"><rect x="26" y="642" width="77" height="77"/></clipPath></defs><g clip-path="url(#clip0)" transform="translate(-26 -642)"><path d="M84.5521 656.879 81.3438 656.879 81.3438 650.021C81.3435 649.135 80.6251 648.417 79.7391 648.417 79.6315 648.417 79.5241 648.428 79.4187 648.45L43.325 655.816C42.578 655.968 42.0415 656.626 42.0417 657.388L42.0417 710.979C42.0417 711.865 42.7598 712.583 43.6458 712.583L84.5521 712.583C85.4381 712.583 86.1562 711.865 86.1562 710.979L86.1562 658.484C86.1562 657.598 85.4381 656.879 84.5521 656.879ZM79.7396 650.021 79.7396 650.021 79.7396 656.879 46.2125 656.879C46.1684 656.879 46.1676 656.872 46.2125 656.863ZM84.5521 710.979 43.6458 710.979 43.6458 658.484 84.5521 658.484Z" fill="#FFFFFF"/><path d="M52.3212 693.462C51.6142 694.169 51.6142 695.315 52.3212 696.022 53.0281 696.729 54.1745 696.729 54.8814 696.022L63.945 686.083C64.3965 686.293 65.5916 686.885 65.9502 686.494L72.897 678.695C76.8104 674.302 75.3883 672.77 75.3883 672.77 74.9228 672.295 74.1611 672.288 73.6869 672.754 73.6815 672.759 73.6762 672.764 73.671 672.77L62.2606 684.185Z" fill="#FFFFFF"/><path d="M66.8405 687.311C66.54 687.629 66.1255 687.813 65.6887 687.824L73.42 696.022C74.1269 696.729 75.2733 696.729 75.9802 696.022 76.6872 695.315 76.6872 694.169 75.9802 693.462L68.0356 685.969Z" fill="#FFFFFF"/><path d="M60.0468 683.582C60.4191 683.508 60.8009 683.497 61.177 683.548L61.4232 683.319 63.5086 681.233C63.4547 680.852 63.4659 680.465 63.5415 680.088 63.7525 678.792 63.2399 677.287 61.7039 675.751 59.8011 673.946 57.7416 672.315 55.5496 670.875L55.017 671.408 61.0871 677.477C61.2643 677.654 61.2643 677.941 61.0871 678.119 60.91 678.296 60.6227 678.296 60.4455 678.119L54.3777 672.046 53.5259 672.898 59.5961 678.968C59.7732 679.145 59.7732 679.432 59.5961 679.61 59.4189 679.787 59.1316 679.787 58.9544 679.61L52.8842 673.539 52.0324 674.391 58.1026 680.461C58.2798 680.639 58.2798 680.926 58.1026 681.103 57.9254 681.28 57.6381 681.28 57.4609 681.103L51.3916 675.033 50.8646 675.561C52.3231 677.74 53.9427 679.807 55.71 681.745 57.2452 683.281 58.7515 683.793 60.0468 683.582Z" fill="#FFFFFF"/></g></svg>