<svg width="77" height="77" xmlns="http://www.w3.org/2000/svg" xmlns:xlink="http://www.w3.org/1999/xlink" overflow="hidden"><defs><clipPath id="clip0"><rect x="26" y="389" width="77" height="77"/></clipPath></defs><g clip-path="url(#clip0)" transform="translate(-26 -389)"><path d="M48.9709 447.186C48.6542 447.186 48.367 447 48.2378 446.711 47.5922 445.488 47.8104 443.988 48.7776 443 49.4826 442.049 51.8816 440.333 56.0781 440.333 60.2746 440.333 62.6737 442.049 63.43 443.06 63.6958 443.415 63.624 443.918 63.2696 444.183 62.9152 444.449 62.4125 444.377 62.1467 444.023 61.7144 443.443 59.7821 441.938 56.0813 441.938 52.3805 441.938 50.4483 443.441 50.016 444.023 49.4393 444.54 49.3092 445.393 49.7056 446.058 49.8863 446.462 49.7049 446.937 49.3005 447.117 49.1978 447.163 49.0866 447.187 48.9741 447.187Z" fill="#FFFFFF"/><path d="M58.5052 447.62C58.2527 447.62 58.0151 447.501 57.8636 447.299 57.3656 446.885 56.7228 446.687 56.0781 446.75 55.4333 446.687 54.7904 446.886 54.2927 447.3 54.0177 447.642 53.5209 447.705 53.1698 447.441 52.8222 447.18 52.7506 446.687 53.0094 446.338 53.8023 445.501 54.9283 445.064 56.0781 445.146 57.2281 445.063 58.3546 445.501 59.1477 446.338 59.4135 446.692 59.3416 447.195 58.9873 447.461 58.8484 447.565 58.6796 447.621 58.506 447.621Z" fill="#FFFFFF"/><path d="M55.2103 413.062C54.9993 413.059 54.7989 412.97 54.6544 412.816 54.3472 412.536 54.3255 412.059 54.606 411.752 54.6214 411.735 54.6375 411.719 54.6544 411.704 55.8481 410.44 55.8481 408.464 54.6544 407.2 52.8095 405.305 52.8095 402.286 54.6544 400.391 54.7989 400.237 54.9993 400.149 55.2103 400.145L55.2103 400.145C55.6448 400.136 56.0039 400.482 56.0125 400.916 56.0169 401.138 55.9274 401.351 55.7661 401.504 55.1663 402.061 54.8208 402.839 54.81 403.657 54.7966 404.538 55.1416 405.386 55.7661 406.007 57.6111 407.902 57.6111 410.922 55.7661 412.816 55.6218 412.97 55.4212 413.059 55.2103 413.062Z" fill="#FFFFFF"/><path d="M63.3626 408.25C63.1517 408.246 62.9513 408.158 62.8068 408.004 62.4996 407.723 62.4779 407.247 62.7584 406.94 62.7738 406.923 62.79 406.907 62.8068 406.891 64.0009 405.628 64.0009 403.651 62.8068 402.388 60.9618 400.493 60.9618 397.473 62.8068 395.579 62.9513 395.425 63.1517 395.336 63.3626 395.332L63.3626 395.332C63.7971 395.324 64.1563 395.669 64.1649 396.104 64.1693 396.325 64.0798 396.539 63.9185 396.691 63.3187 397.248 62.9732 398.026 62.9624 398.845 62.9489 399.725 63.294 400.574 63.9185 401.195 65.7634 403.09 65.7634 406.109 63.9185 408.004 63.7742 408.158 63.5736 408.247 63.3626 408.25Z" fill="#FFFFFF"/><path d="M72.054 413.062C71.8431 413.059 71.6426 412.97 71.4982 412.816 71.191 412.536 71.1692 412.059 71.4497 411.752 71.4651 411.735 71.4812 411.719 71.4982 411.704 72.6918 410.44 72.6918 408.464 71.4982 407.2 69.6532 405.305 69.6532 402.286 71.4982 400.391 71.6426 400.237 71.8431 400.149 72.054 400.145L72.054 400.145C72.4885 400.136 72.8477 400.482 72.8563 400.916 72.8607 401.138 72.7712 401.351 72.6099 401.504 72.0101 402.061 71.6645 402.839 71.6538 403.657 71.6403 404.538 71.9854 405.386 72.6099 406.007 74.4548 407.902 74.4548 410.922 72.6099 412.816 72.4656 412.97 72.265 413.059 72.054 413.062Z" fill="#FFFFFF"/><path d="M39.9442 453.076C34.8791 450.541 31.7983 447.221 31.7983 443.587 31.7983 439.88 35.2568 436.247 41.1955 433.557 40.946 433.081 40.7362 432.584 40.5682 432.073 33.9318 435.056 30.1941 439.155 30.1941 443.587 30.1941 448.02 33.8941 451.994 39.9627 454.865 39.8626 454.274 39.8564 453.67 39.9442 453.076Z" fill="#FFFFFF"/><path d="M89.0694 432.345C89.1496 432.524 89.2298 432.701 89.302 432.882L89.3582 433.034 89.452 433.32C90.1457 433.919 90.755 434.609 91.2631 435.372 95.0618 437.772 97.1985 440.65 97.1985 443.587 97.2017 451.522 82.5316 457.979 64.5 457.979 58.2259 458.033 51.9773 457.175 45.9502 455.431 45.956 455.98 45.7997 456.518 45.5011 456.979 51.6734 458.768 58.0739 459.645 64.5 459.583 83.7372 459.583 98.8059 452.557 98.8059 443.587 98.8059 439.272 95.3 435.292 89.0694 432.345Z" fill="#FFFFFF"/><path d="M82.9479 448.956C78.5181 448.956 74.9271 445.365 74.9271 440.935 74.9271 436.505 78.5181 432.914 82.9479 432.914 87.3777 432.914 90.9688 436.505 90.9688 440.935 90.9639 445.363 87.3757 448.951 82.9479 448.956ZM82.9479 434.518C79.4041 434.518 76.5312 437.391 76.5312 440.935 76.5312 444.479 79.4041 447.352 82.9479 447.352 86.4918 447.352 89.3646 444.479 89.3646 440.935 89.3606 437.393 86.4901 434.522 82.9479 434.518Z" fill="#FFFFFF"/><path d="M44.326 431.766C42.801 428.624 44.1118 424.841 47.2536 423.316 50.3955 421.791 54.1788 423.102 55.7038 426.244 56.0779 427.014 56.2915 427.853 56.3316 428.709 56.8706 428.714 57.4072 428.738 57.9358 428.776 57.8153 424.4 54.17 420.95 49.7936 421.07 45.4173 421.191 41.9673 424.836 42.0878 429.212 42.1208 430.409 42.4244 431.583 42.9761 432.646 43.4119 432.337 43.8618 432.043 44.326 431.766Z" fill="#FFFFFF"/><path d="M72.6748 423.494C70.4079 419.071 65.8609 416.284 60.8906 416.271 57.7753 416.262 54.7585 417.362 52.3797 419.374 53.0045 419.526 53.6132 419.738 54.1972 420.007 56.1526 418.618 58.4922 417.873 60.8906 417.875 64.995 417.886 68.7919 420.052 70.891 423.579 69.7325 423.692 68.5897 423.931 67.4829 424.292 65.0093 421.12 60.6244 420.165 57.0559 422.021 57.1858 422.152 57.3222 422.275 57.4449 422.414 57.685 422.688 57.9102 422.975 58.1194 423.273 60.7982 422.082 63.9385 422.739 65.9149 424.904 64.8727 425.374 63.8844 425.955 62.9672 426.638 61.922 425.992 60.6752 425.755 59.4661 425.973 59.6315 426.487 59.7546 427.014 59.8343 427.548 60.4376 427.438 61.0601 427.509 61.6229 427.753 60.6181 428.688 59.7359 429.746 58.9977 430.903 58.7162 430.868 58.4362 430.823 58.1523 430.798 57.4738 430.739 56.7751 430.708 56.0781 430.708 51.7568 430.633 47.5217 431.922 43.9739 434.39 43.0323 435.073 42.1769 435.868 41.4265 436.758 39.7852 438.64 38.8662 441.044 38.8333 443.542 38.8336 443.957 38.8604 444.372 38.9135 444.784 39.1102 446.357 40.4409 447.54 42.0256 447.552L42.186 447.552C43.0646 447.558 43.9022 447.182 44.4808 446.521 45.1062 445.803 45.3936 444.851 45.2701 443.907 45.2562 443.785 45.2495 443.664 45.25 443.542 45.25 440.513 49.8804 437.125 56.0781 437.125 62.2758 437.125 66.9062 440.513 66.9062 443.542 66.9062 446.57 62.2758 449.958 56.0781 449.958 54.6496 449.958 53.1321 449.812 51.6667 449.671 48.7038 449.386 46.1443 449.139 44.4992 450.018 43.2847 450.612 42.3785 451.693 42.0056 452.993 41.7415 453.977 41.9096 455.027 42.4676 455.88 42.7173 456.246 43.2164 456.34 43.5822 456.09 43.9396 455.846 44.039 455.363 43.8071 454.998 43.501 454.522 43.4114 453.939 43.5608 453.394 43.8232 452.532 44.4364 451.82 45.25 451.433 46.4676 450.782 48.9147 451.017 51.5062 451.268 53.0118 451.413 54.5686 451.562 56.0781 451.562 63.5142 451.562 68.5104 447.415 68.5104 443.542 68.5104 439.668 63.5142 435.521 56.0781 435.521 48.642 435.521 43.6458 439.668 43.6458 443.542 43.6462 443.729 43.6576 443.917 43.6803 444.103 43.7471 444.592 43.6012 445.086 43.2793 445.46 43.0029 445.774 42.6041 445.952 42.186 445.95L42.0256 445.95C41.2461 445.941 40.5939 445.355 40.5017 444.581 40.4582 444.236 40.4368 443.889 40.4375 443.542 40.4725 441.421 41.259 439.382 42.6569 437.787 43.3243 436.996 44.0848 436.289 44.9219 435.681 48.1948 433.415 52.0979 432.236 56.0781 432.312 56.7278 432.312 57.3783 432.341 58.0127 432.398 65.8258 433.093 71.7188 437.884 71.7188 443.542 71.6648 446.004 70.6245 448.342 68.8313 450.031 68.5189 450.345 68.5208 450.853 68.8353 451.165 69.1498 451.478 69.6579 451.476 69.9702 451.161 72.0649 449.174 73.273 446.429 73.3229 443.542 73.2456 440.501 71.9063 437.63 69.6261 435.616 71.0813 434.519 73.0587 434.419 74.6167 435.365 74.9183 434.921 75.255 434.502 75.6233 434.111 73.3738 432.634 70.4208 432.814 68.3668 434.552 67.504 433.897 66.581 433.325 65.6101 432.844 69.0312 429.287 74.5962 428.913 78.4627 431.98 79.009 431.705 79.5796 431.481 80.1671 431.31 75.6479 427.094 68.5666 427.34 64.3506 431.859 64.2562 431.96 64.1638 432.063 64.0733 432.167 62.9895 431.749 61.8726 431.422 60.7342 431.19 65.3448 424.678 74.3614 423.136 80.8734 427.747 82.1395 428.643 83.253 429.738 84.1711 430.988 84.9457 431.084 85.7064 431.27 86.437 431.545 83.6177 426.595 78.3711 423.526 72.6748 423.494Z" fill="#FFFFFF"/></g></svg>