<svg width="96" height="96" xmlns="http://www.w3.org/2000/svg" xmlns:xlink="http://www.w3.org/1999/xlink" overflow="hidden"><defs><clipPath id="clip0"><rect x="448" y="360" width="96" height="96"/></clipPath></defs><g clip-path="url(#clip0)" transform="translate(-448 -360)"><path d="M464.157 441.657C484.505 450.077 507.357 450.113 527.732 441.757 530.242 440.806 531.507 438 530.555 435.489 530.512 435.374 530.464 435.261 530.412 435.15 529.58 433.333 527.762 432.172 525.764 432.182 525.127 432.183 524.495 432.298 523.898 432.523L523.869 432.534 523.839 432.546C523.692 432.607 523.539 432.657 523.394 432.716L495.9 367.423 468.442 432.636C468.301 432.58 468.157 432.531 468.017 432.473 467.383 432.194 466.692 432.067 466 432.1 464.011 432.102 462.206 433.263 461.379 435.072L461.36 435.114 461.343 435.157C460.365 437.728 461.612 440.611 464.157 441.657ZM504.72 393.523C503.876 395.857 501.299 397.064 498.965 396.22 496.631 395.375 495.424 392.799 496.268 390.465 496.913 388.683 498.605 387.497 500.5 387.5 501.14 387.5 501.773 387.639 502.355 387.907ZM495.9 372.577 501.368 385.563C497.812 385.071 494.53 387.555 494.039 391.111 493.547 394.667 496.03 397.948 499.586 398.44 501.944 398.767 504.292 397.778 505.706 395.863L521.525 433.436C504.996 439.55 486.82 439.521 470.31 433.354ZM463.2 435.9C463.7 434.803 464.795 434.1 466 434.1 466.41 434.068 466.822 434.137 467.2 434.3 485.579 441.865 506.195 441.901 524.6 434.4 524.972 434.259 525.366 434.187 525.764 434.186 526.983 434.183 528.091 434.892 528.6 436 529.271 437.431 528.655 439.135 527.224 439.806 527.151 439.841 527.076 439.872 527 439.9 507.099 448.068 484.775 448.032 464.9 439.8 463.378 439.167 462.628 437.446 463.2 435.9Z" stroke="#FFFFFF" stroke-width="4.66667" fill="#FFFFFF"/><path d="M508.5 432.5C512.09 432.5 515 429.59 515 426 515 422.41 512.09 419.5 508.5 419.5 504.91 419.5 502 422.41 502 426 502.004 429.588 504.912 432.496 508.5 432.5ZM508.5 421.5C510.985 421.5 513 423.515 513 426 513 428.485 510.985 430.5 508.5 430.5 506.015 430.5 504 428.485 504 426 504.003 423.516 506.016 421.503 508.5 421.5Z" stroke="#FFFFFF" stroke-width="4.66667" fill="#FFFFFF"/><path d="M488.5 410.5C484.91 410.5 482 413.41 482 417 482 420.59 484.91 423.5 488.5 423.5 492.09 423.5 495 420.59 495 417 494.996 413.412 492.088 410.504 488.5 410.5ZM488.5 421.5C486.015 421.5 484 419.485 484 417 484 414.515 486.015 412.5 488.5 412.5 490.985 412.5 493 414.515 493 417 492.997 419.484 490.984 421.497 488.5 421.5Z" stroke="#FFFFFF" stroke-width="4.66667" fill="#FFFFFF"/></g></svg>