<svg width="77" height="77" xmlns="http://www.w3.org/2000/svg" xmlns:xlink="http://www.w3.org/1999/xlink" overflow="hidden"><defs><clipPath id="clip0"><rect x="26" y="305" width="77" height="77"/></clipPath></defs><g clip-path="url(#clip0)" transform="translate(-26 -305)"><path d="M92.5729 327.057C92.5727 324.498 90.7134 322.319 88.1866 321.915 87.3924 319.939 85.4789 318.641 83.349 318.635 82.0685 318.638 80.8347 319.116 79.886 319.976 79.3717 319.406 78.7485 318.944 78.0532 318.618 77.918 315.394 75.1947 312.89 71.9708 313.026 69.7834 313.117 67.8309 314.424 66.9123 316.412 66.0575 316.325 65.1942 316.432 64.3863 316.724 63.5474 316.122 62.5406 315.797 61.5076 315.797 61.1519 315.797 60.7973 315.836 60.4502 315.914 59.319 313.431 56.3889 312.335 53.9057 313.466 52.5014 314.105 51.4766 315.365 51.1354 316.87 48.4795 317.465 46.8093 320.101 47.405 322.757 47.405 322.757 47.405 322.757 47.405 322.757 44.9722 323.221 43.1309 325.224 42.8725 327.688 39.9025 328.549 38.1932 331.655 39.0546 334.625 39.2318 335.236 39.5119 335.812 39.8829 336.329L46.175 373.979 82.8356 373.979 89.4278 334.533C89.9118 333.729 90.1673 332.808 90.1667 331.87 90.1667 331.733 90.1612 331.596 90.1494 331.457 91.6637 330.508 92.5802 328.844 92.5729 327.057ZM80.3192 322.646C82.4466 322.645 84.172 324.369 84.1729 326.496 84.1734 327.813 83.5014 329.039 82.391 329.746L81.7933 330.129 82.1004 330.769C82.8345 332.287 82.4834 334.108 81.2372 335.244 79.7599 335.447 77.0874 335.743 75.5656 335.885 75.7178 335.661 75.836 335.416 75.9164 335.157 76.4378 333.472 75.9974 331.637 74.7681 330.372 75.9084 327.947 74.8672 325.057 72.4422 323.917 72.0266 323.721 71.5852 323.586 71.1315 323.515 72.6892 322.234 74.974 322.386 76.3488 323.861L76.9323 324.481 77.5158 323.861C78.2403 323.083 79.2563 322.643 80.3192 322.646ZM65.3131 336.281 64.9206 336.281C66.5107 333.49 65.5984 329.94 62.8593 328.261 62.8301 327.818 62.7514 327.379 62.6245 326.954 63.7017 325.822 65.4361 325.628 66.7373 326.492L67.3549 326.899 67.8108 326.317C68.9131 324.901 70.9542 324.648 72.3697 325.75 73.7059 326.79 74.0185 328.683 73.0878 330.098L72.6812 330.715 73.2632 331.171C74.6748 332.248 74.9463 334.265 73.8697 335.676 73.7787 335.796 73.6795 335.908 73.5728 336.014 70.8998 336.188 68.1568 336.281 65.3131 336.281ZM50.2681 335.555C49.0452 333.481 49.7347 330.809 51.8082 329.586 51.891 329.537 51.9755 329.491 52.0615 329.448L52.4985 329.225 52.4939 328.636C52.4999 326.214 54.4686 324.255 56.8911 324.261 59.3 324.267 61.2533 326.214 61.2666 328.623L61.2501 329.218 61.6993 329.448C63.8465 330.527 64.7126 333.142 63.6339 335.289 63.4543 335.646 63.2262 335.978 62.9561 336.273 58.717 336.26 54.4816 336.02 50.2681 335.555ZM65.6636 318.053C65.8846 318.011 66.1088 317.989 66.3336 317.986 66.6417 317.987 66.9487 318.021 67.2493 318.089L67.9598 318.245 68.1853 317.554C68.9081 315.327 71.2988 314.108 73.5252 314.831 75.2729 315.399 76.4559 317.027 76.4548 318.865 76.4548 318.918 76.4509 318.971 76.4468 319.023L76.4077 319.709 76.9771 319.909C77.7146 320.17 78.3651 320.63 78.8559 321.24L78.8496 321.259C78.1523 321.448 77.5002 321.775 76.9326 322.222 74.5868 320.356 71.1722 320.744 69.3058 323.09 69.1563 323.278 69.0195 323.475 68.8962 323.681 68.1893 323.908 67.5443 324.295 67.0113 324.812 66.4438 324.544 65.8295 324.39 65.2029 324.357 65.1343 324.353 65.0011 324.352 64.9517 324.351 64.9411 324.351 64.9391 324.345 64.9468 324.338 66.6715 322.69 66.9731 320.046 65.6637 318.053ZM51.9142 318.365 52.5643 318.299 52.6309 317.648C52.8055 315.812 54.4353 314.465 56.2711 314.64 57.6645 314.773 58.8273 315.76 59.1839 317.114L59.4196 317.986 60.257 317.649C61.9788 316.956 63.9358 317.791 64.6281 319.513 65.3204 321.235 64.4857 323.192 62.7639 323.884 62.3648 324.044 61.9385 324.127 61.5082 324.126 61.4804 324.125 61.4527 324.123 61.4252 324.118L60.7434 324.07C58.2346 321.933 54.4691 322.235 52.3329 324.744 52.2519 324.839 52.1741 324.937 52.0993 325.037 50.2536 324.963 48.8174 323.406 48.8915 321.56 48.9587 319.889 50.2496 318.525 51.9143 318.365ZM43.7822 329.124 44.4479 328.939 44.4479 328.26C44.4547 326.217 45.9994 324.507 48.0315 324.293 48.7535 325.458 49.9243 326.274 51.2673 326.547 51.0613 327.097 50.9381 327.675 50.9014 328.261 49.132 329.348 48.0554 331.277 48.0596 333.353 48.0625 334.029 48.1823 334.699 48.4137 335.334 45.7507 334.985 43.1481 334.54 40.6059 333.999L40.5439 333.985C40.0379 331.835 41.3709 329.682 43.521 329.176 43.6075 329.156 43.6946 329.138 43.7822 329.124ZM47.5333 372.375 41.4221 335.807C44.8381 336.49 48.2868 336.998 51.7549 337.329L54.8023 372.375ZM63.6979 372.375 56.4124 372.375 53.3772 337.47C56.6957 337.742 60.1206 337.885 63.6979 337.885ZM65.3021 372.375 65.3021 337.885 65.3131 337.885C68.8865 337.885 72.3078 337.743 75.6228 337.47L72.5876 372.375ZM81.4777 372.375 74.1977 372.375 77.2451 337.33C80.7168 336.999 84.1693 336.491 87.5889 335.807ZM88.9315 330.302 88.3769 330.571 88.4943 331.176C88.5392 331.404 88.562 331.637 88.5625 331.87 88.5611 332.696 88.2708 333.496 87.7418 334.131 86.3342 334.422 84.9104 334.683 83.4702 334.915 84.1524 333.614 84.2719 332.091 83.8009 330.7 86.1206 328.78 86.4452 325.344 84.5258 323.024 83.6469 321.962 82.3981 321.272 81.0309 321.094 82.5445 319.809 84.8129 319.995 86.0975 321.508 86.4347 321.906 86.6815 322.372 86.8208 322.874L86.9759 323.429 87.5508 323.459C89.5379 323.562 91.0657 325.255 90.9633 327.243 90.8956 328.557 90.1166 329.73 88.9315 330.302Z" fill="#FFFFFF"/></g></svg>