<svg width="77" height="77" xmlns="http://www.w3.org/2000/svg" xmlns:xlink="http://www.w3.org/1999/xlink" overflow="hidden"><defs><clipPath id="clip0"><rect x="26" y="473" width="77" height="77"/></clipPath></defs><g clip-path="url(#clip0)" transform="translate(-26 -473)"><path d="M92.0059 483.996C84.9374 476.926 73.4763 476.926 66.4068 483.994 66.4062 483.995 66.4057 483.995 66.4051 483.996 62.1866 488.214 60.4896 500.019 58.0324 504.484 53.2046 513.258 48.6348 513.758 51.5533 518.047L45.3098 524.29C43.6912 520.924 39.6499 519.507 36.2834 521.125 32.9169 522.744 31.5 526.785 33.1187 530.152 34.7373 533.518 38.7786 534.935 42.1451 533.316 42.7809 533.011 43.365 532.607 43.8762 532.121 43.9475 532.053 43.9472 532.053 43.8795 532.124 41.2997 534.845 41.4139 539.141 44.1343 541.721 46.7564 544.208 50.8668 544.204 53.4847 541.713 55.3981 539.804 56.0234 536.955 55.0855 534.421 54.5417 532.754 53.3149 531.398 51.7114 530.69L57.9543 524.447C58.6414 524.989 59.4766 525.31 60.3497 525.368 62.886 525.368 64.6477 521.672 71.609 518.061 76.1675 515.697 87.7898 513.812 92.006 509.596 99.0744 502.526 99.0744 491.065 92.0059 483.996ZM50.577 529.555C49.9504 530.182 49.9501 531.197 50.5764 531.824 50.7055 531.953 50.8558 532.059 51.0207 532.138 53.5877 533.375 54.6655 536.459 53.4283 539.026 52.191 541.593 49.1071 542.671 46.5402 541.434 43.9734 540.196 42.8955 537.112 44.1328 534.545 44.3859 534.02 44.7263 533.542 45.1395 533.13 45.766 532.504 45.766 531.488 45.1395 530.861 44.513 530.235 43.4973 530.235 42.8708 530.861 40.8455 532.969 37.4955 533.035 35.3881 531.01 33.2808 528.985 33.2143 525.635 35.2395 523.527 37.2648 521.42 40.6148 521.354 42.7222 523.379 43.1973 523.835 43.583 524.377 43.8593 524.975 44.2378 525.776 45.1939 526.119 45.995 525.74 46.1618 525.661 46.3137 525.555 46.4441 525.424L52.5441 519.324C53.0831 519.954 53.7407 520.656 54.5444 521.459 55.3496 522.264 56.0478 522.914 56.6792 523.453ZM90.8716 508.461C88.4767 510.856 82.8065 512.595 78.2504 513.993 75.7244 514.678 73.2567 515.562 70.8703 516.637 68.115 518.077 65.5441 519.846 63.2136 521.903 61.9357 522.983 61.0123 523.764 60.3497 523.764 59.2455 523.764 57.1549 521.801 55.6787 520.325 54.2386 518.885 52.3152 516.842 52.2378 515.731 52.1913 515.065 52.8702 514.233 54.1754 512.698 56.1944 510.416 57.959 507.921 59.438 505.258 60.6082 502.75 61.5433 500.14 62.2312 497.46 63.6305 492.769 65.2166 487.453 67.5399 485.13 74.0102 478.715 84.4561 478.759 90.8714 485.23 97.2477 491.661 97.2479 502.03 90.8716 508.461Z" fill="#FFFFFF"/></g></svg>