<svg width="77" height="77" xmlns="http://www.w3.org/2000/svg" xmlns:xlink="http://www.w3.org/1999/xlink" overflow="hidden"><defs><clipPath id="clip0"><rect x="26" y="557" width="77" height="77"/></clipPath></defs><g clip-path="url(#clip0)" transform="translate(-26 -557)"><path d="M59.7556 572.623 61.8657 573.982C62.7742 574.545 63.9225 574.545 64.8309 573.982L66.9407 572.623 67.0045 572.586C67.3504 572.408 67.7707 572.464 68.058 572.726L69.5329 574.535C70.2473 575.332 71.3639 575.634 72.3829 575.306L72.861 575.16 73.1659 574.403C73.3446 574.008 73.525 573.615 73.7071 573.222L71.9129 573.772C71.5168 573.908 71.0782 573.811 70.776 573.521L69.3011 571.712C68.5317 570.865 67.29 570.639 66.2709 571.159 66.2024 571.195 66.1362 571.233 66.0727 571.274L63.9618 572.634C63.5832 572.857 63.1134 572.857 62.7348 572.634L60.6247 571.274C60.0348 570.909 59.3237 570.795 58.6494 570.958L58.9541 572.538C59.2212 572.451 59.5126 572.482 59.7556 572.623Z" fill="#FFFFFF"/><path d="M87.8481 567.025C87.4213 565.923 86.5577 565.046 85.4618 564.602 81.2093 562.753 78.0595 567.782 75.443 573.299 76.3664 572.52 77.4087 571.677 78.5309 570.838 80.9252 566.627 82.8565 565.219 84.8203 566.072 85.5228 566.346 86.0783 566.902 86.3524 567.605 87.4058 570.323 85.12 575.842 82.2317 582.346L80.1453 581.062 77.5385 582.666 74.9317 581.062 73.3663 582.025C73.5509 581.594 73.7396 581.156 73.9193 580.735L74.5742 579.203C74.9211 578.388 75.4404 577.658 76.0964 577.062 77.9969 575.325 80.0214 573.728 82.154 572.284 82.5235 572.04 82.625 571.543 82.3808 571.173 82.1366 570.804 81.6392 570.702 81.2697 570.946 79.069 572.434 76.9799 574.081 75.0191 575.873 74.192 576.623 73.5373 577.544 73.1 578.571L72.444 580.105C72.1542 580.784 71.8516 581.488 71.5498 582.189L69.7182 581.062 67.1114 582.666 64.5047 581.062 61.8979 582.666 59.2911 581.062 58.9983 581.242 56.5426 568.504 43.3674 571.044 45.5206 582.212 43.6505 581.062 43.6505 605.925 45.2547 604.321 45.2547 583.932 45.4165 584.032 46.2573 584.549 47.098 584.032 48.864 582.945 50.6301 584.032 51.4708 584.549 52.3115 584.032 54.0776 582.945 55.8436 584.032 56.6843 584.549 57.5251 584.032 59.2911 582.945 61.0571 584.032 61.8979 584.549 62.7385 584.032 64.5047 582.945 66.2707 584.032 67.1114 584.549 67.9522 584.032 69.7182 582.945 71.4842 584.032 72.325 584.549 73.1657 584.032 74.9317 582.945 76.6978 584.032 77.5385 584.549 78.3792 584.032 80.1453 582.945 81.9113 584.032 82.752 584.549 83.5928 584.032 83.7547 583.932 83.7547 622.77C83.7537 623.656 83.0361 624.373 82.1505 624.374L55.4713 624.374C55.154 624.946 54.7793 625.483 54.3531 625.978L82.1505 625.978C83.9224 625.978 85.3587 624.542 85.3588 622.77L85.3588 581.062 84.2531 581.742C87.1003 575.265 89.0556 570.14 87.8481 567.025ZM56.6843 582.666 54.0776 581.062 51.4708 582.666 48.864 581.062 47.1373 582.124 45.2462 572.315 55.2711 570.382 57.5378 582.141Z" fill="#FFFFFF"/><path d="M54.5354 612.649C52.4385 610.365 49.9324 611.199 48.2734 611.752 48.0915 611.812 47.9197 611.866 47.7476 611.92 47.6839 611.701 47.6067 611.485 47.5163 611.275 47.5995 611.268 47.6833 611.269 47.7657 611.254 48.588 611.134 49.3526 610.761 49.9537 610.187 50.7565 609.22 51.1701 607.988 51.1136 606.732 51.1136 606.732 51.0564 606.729 50.9555 606.729 49.7502 606.695 48.5751 607.109 47.6585 607.892 47.1873 608.401 46.8517 609.02 46.6828 609.693 46.677 609.685 46.672 609.675 46.6661 609.667 46.076 608.844 45.3399 608.136 44.4944 607.579L43.6101 608.917C44.2925 609.367 44.8866 609.939 45.3631 610.603 45.5176 610.821 45.6517 611.052 45.7637 611.294L45.9549 611.698C45.9705 611.732 45.9803 611.76 45.9949 611.792 45.9598 611.781 45.9289 611.772 45.8933 611.76 44.1212 611.185 41.4436 610.316 39.3431 612.63 37.5647 614.592 37.8412 621.088 40.4578 624.551 41.8822 626.687 44.6853 627.408 46.9637 626.226 47.7269 626.579 48.5555 626.768 49.3962 626.782 51.0178 626.751 52.523 625.934 53.4317 624.59 56.0557 621.132 56.3268 614.625 54.5354 612.649ZM52.1538 623.621C50.8892 625.288 49.3093 625.616 47.324 624.622L46.9673 624.444 46.6093 624.621C44.6076 625.612 43.014 625.273 41.7377 623.584 39.566 620.71 39.3451 615.016 40.5314 613.707 41.8344 612.272 43.3708 612.628 45.398 613.286 45.6514 613.368 45.8942 613.447 46.1225 613.514 46.382 613.589 46.6499 613.632 46.9199 613.641L47.01 613.645C47.3466 613.655 47.6829 613.614 48.0067 613.521 48.2535 613.448 48.5123 613.363 48.7802 613.273 50.7004 612.634 52.0559 612.321 53.3506 613.731 54.544 615.048 54.3309 620.752 52.1538 623.621Z" fill="#FFFFFF"/></g></svg>