<svg width="48" height="48" xmlns="http://www.w3.org/2000/svg" xmlns:xlink="http://www.w3.org/1999/xlink" overflow="hidden"><defs><clipPath id="clip0"><rect x="26" y="525" width="48" height="48"/></clipPath></defs><g clip-path="url(#clip0)" transform="translate(-26 -525)"><path d="M47.0424 534.739 48.3578 535.586C48.9241 535.937 49.64 535.937 50.2062 535.586L51.5215 534.739 51.5612 534.716C51.7769 534.605 52.0389 534.64 52.2179 534.803L53.1374 535.931C53.5827 536.428 54.2788 536.616 54.914 536.412L55.2121 536.32 55.4021 535.849C55.5135 535.603 55.6259 535.357 55.7395 535.113L54.621 535.456C54.3741 535.54 54.1007 535.479 53.9123 535.299L52.9929 534.171C52.5133 533.643 51.7392 533.502 51.104 533.827 51.0612 533.849 51.02 533.873 50.9804 533.898L49.6645 534.746C49.4285 534.885 49.1356 534.885 48.8996 534.746L47.5842 533.898C47.2165 533.671 46.7732 533.6 46.3529 533.701L46.5428 534.686C46.7093 534.632 46.891 534.651 47.0424 534.739Z" stroke="#F2F2F2" stroke-width="1.33333" fill="#FFFFFF"/><path d="M64.5546 531.25C64.2886 530.562 63.7503 530.015 63.0671 529.739 60.4162 528.586 58.4526 531.721 56.8216 535.161 57.3972 534.675 58.047 534.149 58.7466 533.626 60.2391 531.001 61.443 530.124 62.6672 530.655 63.1051 530.826 63.4514 531.173 63.6223 531.611 64.2789 533.305 62.854 536.746 61.0535 540.8L59.7529 540 58.1279 541 56.5029 540 55.5271 540.6C55.6421 540.332 55.7598 540.059 55.8718 539.796L56.28 538.841C56.4963 538.333 56.82 537.877 57.229 537.506 58.4137 536.423 59.6757 535.428 61.0051 534.528 61.2354 534.376 61.2987 534.065 61.1465 533.835 60.9943 533.605 60.6842 533.542 60.4538 533.694 59.082 534.621 57.7796 535.648 56.5574 536.765 56.0418 537.233 55.6337 537.806 55.361 538.447L54.9521 539.403C54.7715 539.827 54.5828 540.265 54.3947 540.702L53.2529 540 51.6279 541 50.0029 540 48.3779 541 46.7529 540 46.5704 540.112 45.0396 532.171 36.8265 533.754 38.1687 540.717 37.0029 540 37.0029 555.499 38.0029 554.499 38.0029 541.789 38.1038 541.851 38.6279 542.174 39.152 541.851 40.2529 541.174 41.3538 541.851 41.8779 542.174 42.402 541.851 43.5029 541.174 44.6038 541.851 45.1279 542.174 45.652 541.851 46.7529 541.174 47.8538 541.851 48.3779 542.174 48.902 541.851 50.0029 541.174 51.1038 541.851 51.6279 542.174 52.152 541.851 53.2529 541.174 54.3538 541.851 54.8779 542.174 55.402 541.851 56.5029 541.174 57.6038 541.851 58.1279 542.174 58.652 541.851 59.7529 541.174 60.8538 541.851 61.3779 542.174 61.902 541.851 62.0029 541.789 62.0029 566C62.0023 566.552 61.555 566.999 61.0029 567L44.3717 567C44.1739 567.356 43.9403 567.691 43.6747 568L61.0029 568C62.1074 568 63.0028 567.104 63.0029 566L63.0029 540 62.3136 540.424C64.0885 536.386 65.3074 533.191 64.5546 531.25ZM45.1279 541 43.5029 540 41.8779 541 40.2529 540 39.1765 540.662 37.9977 534.547 44.2469 533.342 45.66 540.672Z" stroke="#F2F2F2" stroke-width="1.33333" fill="#FFFFFF"/><path d="M43.7883 559.69C42.4811 558.267 40.9189 558.787 39.8847 559.131 39.7713 559.168 39.6642 559.202 39.5569 559.236 39.5173 559.099 39.4691 558.965 39.4128 558.834 39.4646 558.829 39.5168 558.83 39.5682 558.821 40.0808 558.746 40.5574 558.513 40.9322 558.156 41.4326 557.553 41.6904 556.785 41.6553 556.002 41.6553 556.002 41.6196 556 41.5566 556 40.8053 555.978 40.0728 556.237 39.5014 556.725 39.2076 557.042 38.9985 557.428 38.8932 557.848 38.8895 557.843 38.8865 557.837 38.8828 557.832 38.5149 557.318 38.056 556.877 37.529 556.53L36.9777 557.364C37.4031 557.645 37.7734 558.001 38.0705 558.415 38.1668 558.551 38.2504 558.695 38.3203 558.846L38.4394 559.098C38.4492 559.118 38.4552 559.136 38.4643 559.156 38.4425 559.149 38.4232 559.144 38.4011 559.136 37.2963 558.778 35.6272 558.236 34.3178 559.678 33.2091 560.901 33.3815 564.951 35.0126 567.11 35.9006 568.441 37.648 568.891 39.0683 568.154 39.5441 568.374 40.0606 568.492 40.5846 568.5 41.5955 568.481 42.5338 567.972 43.1003 567.134 44.736 564.979 44.905 560.922 43.7883 559.69ZM42.3036 566.53C41.5154 567.569 40.5304 567.773 39.2929 567.154L39.0705 567.043 38.8474 567.153C37.5995 567.771 36.6061 567.56 35.8105 566.507 34.4567 564.715 34.319 561.166 35.0585 560.35 35.8708 559.456 36.8286 559.677 38.0923 560.087 38.2502 560.139 38.4016 560.188 38.5439 560.229 38.7057 560.276 38.8727 560.303 39.041 560.309L39.0971 560.311C39.307 560.318 39.5166 560.292 39.7184 560.234 39.8723 560.188 40.0336 560.135 40.2006 560.08 41.3977 559.681 42.2426 559.486 43.0498 560.365 43.7936 561.186 43.6609 564.741 42.3036 566.53Z" stroke="#F2F2F2" stroke-width="1.33333" fill="#FFFFFF"/></g></svg>