<svg width="48" height="48" xmlns="http://www.w3.org/2000/svg" xmlns:xlink="http://www.w3.org/1999/xlink" overflow="hidden"><defs><clipPath id="clip0"><rect x="26" y="221" width="48" height="48"/></clipPath></defs><g clip-path="url(#clip0)" transform="translate(-26 -221)"><path d="M59.6665 240 58.8335 240 58.8335 239C58.826 234.478 55.4676 230.663 50.9835 230.082L51.302 226.386 57.9705 224.48C58.2387 224.415 58.4029 224.144 58.3372 223.876 58.2715 223.608 58.0008 223.444 57.7325 223.509 57.7204 223.512 57.7084 223.516 57.6965 223.52L50.6965 225.52C50.4971 225.576 50.3535 225.75 50.3355 225.957L49.9855 230.007C49.9355 230.007 49.8855 229.999 49.8355 229.999 44.8673 230.005 40.8413 234.031 40.8355 238.999L40.8355 239.999 40 239.999C39.7239 239.999 39.5 240.223 39.5 240.499 39.5 240.775 39.7239 240.999 40 240.999L40.88 240.999 43.38 266.499 56.287 266.499 58.787 240.999 59.669 240.999C59.9451 240.999 60.169 240.775 60.169 240.499 60.169 240.223 59.9451 239.999 59.669 239.999ZM57.8335 239 57.8335 240 50.1285 240 50.9 231.079C54.8661 231.615 57.8269 234.998 57.8335 239ZM41.8335 239C41.8387 234.584 45.4174 231.005 49.8335 231 49.856 231 49.878 231.003 49.9005 231.003L49.125 240 41.8335 240ZM49.0385 241 48.35 249 42.6675 249 41.8825 241ZM55.38 265.5 44.2865 265.5 42.7655 250 56.9 250ZM57 249 49.3525 249 50.042 241 57.782 241Z" stroke="#F2F2F2" stroke-width="1.33333" fill="#FFFFFF"/></g></svg>