<svg width="48" height="48" xmlns="http://www.w3.org/2000/svg" xmlns:xlink="http://www.w3.org/1999/xlink" overflow="hidden"><defs><clipPath id="clip0"><rect x="26" y="602" width="48" height="48"/></clipPath></defs><g clip-path="url(#clip0)" transform="translate(-26 -602)"><path d="M62.5 611.276 60.5 611.276 60.5 607C60.4999 606.448 60.052 606 59.4997 606 59.4326 606 59.3657 606.007 59.3 606.021L36.8 610.612C36.3344 610.708 35.9999 611.117 36 611.593L36 645C36 645.552 36.4477 646 37 646L62.5 646C63.0523 646 63.5 645.552 63.5 645L63.5 612.276C63.5 611.723 63.0523 611.276 62.5 611.276ZM59.5 607 59.5 607 59.5 611.276 38.6 611.276C38.5725 611.276 38.572 611.271 38.6 611.266ZM62.5 645 37 645 37 612.276 62.5 612.276Z" stroke="#F2F2F2" stroke-width="1.33333" fill="#FFFFFF"/><path d="M42.408 634.08C41.9673 634.521 41.9673 635.235 42.408 635.676 42.8487 636.117 43.5633 636.117 44.004 635.676L49.654 629.48C49.9355 629.612 50.6805 629.98 50.904 629.737L55.2345 624.875C57.674 622.136 56.7875 621.181 56.7875 621.181 56.4974 620.885 56.0225 620.881 55.7269 621.171 55.7235 621.174 55.7202 621.178 55.717 621.181L48.604 628.297Z" stroke="#F2F2F2" stroke-width="1.33333" fill="#FFFFFF"/><path d="M51.459 630.246C51.2717 630.444 51.0133 630.559 50.741 630.565L55.5605 635.676C56.0012 636.117 56.7158 636.117 57.1565 635.676 57.5972 635.235 57.5972 634.521 57.1565 634.08L52.204 629.409Z" stroke="#F2F2F2" stroke-width="1.33333" fill="#FFFFFF"/><path d="M47.224 627.922C47.4561 627.875 47.6941 627.868 47.9285 627.9L48.082 627.757 49.382 626.457C49.3484 626.22 49.3554 625.978 49.4025 625.743 49.534 624.935 49.2145 623.997 48.257 623.039 47.0708 621.915 45.7869 620.897 44.4205 620L44.0885 620.332 47.8725 624.115C47.9829 624.226 47.9829 624.405 47.8725 624.516 47.7621 624.626 47.583 624.626 47.4725 624.516L43.69 620.73 43.159 621.261 46.943 625.045C47.0535 625.155 47.0535 625.335 46.943 625.445 46.8326 625.555 46.6535 625.555 46.543 625.445L42.759 621.661 42.228 622.192 46.012 625.976C46.1225 626.086 46.1225 626.266 46.012 626.376 45.9016 626.486 45.7225 626.486 45.612 626.376L41.8285 622.592 41.5 622.921C42.4092 624.28 43.4188 625.568 44.5205 626.776 45.4775 627.734 46.4165 628.053 47.224 627.922Z" stroke="#F2F2F2" stroke-width="1.33333" fill="#FFFFFF"/></g></svg>