<svg width="48" height="48" xmlns="http://www.w3.org/2000/svg" xmlns:xlink="http://www.w3.org/1999/xlink" overflow="hidden"><defs><clipPath id="clip0"><rect x="26" y="374" width="48" height="48"/></clipPath></defs><g clip-path="url(#clip0)" transform="translate(-26 -374)"><path d="M40.3195 410.271C40.1221 410.272 39.9431 410.156 39.8625 409.975 39.46 409.213 39.5961 408.278 40.199 407.663 40.6385 407.069 42.134 406 44.75 406 47.366 406 48.8615 407.069 49.333 407.7 49.4987 407.921 49.4539 408.234 49.233 408.4 49.0121 408.566 48.6987 408.521 48.533 408.3 48.2635 407.939 47.059 407 44.752 407 42.445 407 41.2405 407.938 40.971 408.3 40.6115 408.622 40.5304 409.154 40.7775 409.569 40.8902 409.821 40.7771 410.116 40.525 410.229 40.4609 410.258 40.3917 410.272 40.3215 410.272Z" stroke="#F2F2F2" stroke-width="1.33333" fill="#FFFFFF"/><path d="M46.263 410.543C46.1056 410.543 45.9575 410.468 45.863 410.342 45.5526 410.084 45.1518 409.961 44.75 410 44.348 409.961 43.9473 410.085 43.637 410.343 43.4655 410.556 43.1559 410.595 42.937 410.431 42.7204 410.268 42.6757 409.961 42.837 409.743 43.3313 409.221 44.0332 408.949 44.75 409 45.4669 408.949 46.1691 409.221 46.6635 409.743 46.8292 409.964 46.7844 410.277 46.5635 410.443 46.477 410.508 46.3717 410.543 46.2635 410.543Z" stroke="#F2F2F2" stroke-width="1.33333" fill="#FFFFFF"/><path d="M44.209 389C44.0775 388.998 43.9526 388.942 43.8625 388.846 43.671 388.672 43.6574 388.375 43.8323 388.183 43.8419 388.173 43.852 388.163 43.8625 388.153 44.6066 387.365 44.6066 386.133 43.8625 385.345 42.7124 384.164 42.7124 382.282 43.8625 381.101 43.9526 381.005 44.0775 380.95 44.209 380.948L44.209 380.948C44.4799 380.942 44.7038 381.157 44.7091 381.428 44.7118 381.566 44.6561 381.699 44.5555 381.794 44.1816 382.142 43.9662 382.627 43.9595 383.137 43.9511 383.686 44.1662 384.215 44.5555 384.602 45.7056 385.783 45.7056 387.665 44.5555 388.846 44.4655 388.942 44.3405 388.998 44.209 389Z" stroke="#F2F2F2" stroke-width="1.33333" fill="#FFFFFF"/><path d="M49.291 386C49.1595 385.998 49.0345 385.942 48.9445 385.846 48.753 385.672 48.7394 385.375 48.9143 385.183 48.9239 385.173 48.934 385.163 48.9445 385.153 49.6889 384.365 49.6889 383.133 48.9445 382.345 47.7944 381.164 47.7944 379.282 48.9445 378.101 49.0345 378.005 49.1595 377.95 49.291 377.948L49.291 377.948C49.5619 377.942 49.7858 378.157 49.7911 378.428 49.7938 378.566 49.7381 378.7 49.6375 378.794 49.2636 379.142 49.0482 379.627 49.0415 380.137 49.0331 380.686 49.2482 381.215 49.6375 381.602 50.7876 382.783 50.7876 384.665 49.6375 385.846 49.5476 385.942 49.4225 385.998 49.291 386Z" stroke="#F2F2F2" stroke-width="1.33333" fill="#FFFFFF"/><path d="M54.709 389C54.5775 388.998 54.4526 388.942 54.3625 388.846 54.171 388.672 54.1574 388.375 54.3323 388.183 54.3419 388.173 54.352 388.163 54.3625 388.153 55.1066 387.365 55.1066 386.133 54.3625 385.345 53.2124 384.164 53.2124 382.282 54.3625 381.101 54.4526 381.005 54.5775 380.95 54.709 380.948L54.709 380.948C54.9799 380.942 55.2038 381.157 55.2091 381.428 55.2118 381.566 55.1561 381.699 55.0555 381.794 54.6816 382.142 54.4662 382.627 54.4595 383.137 54.4511 383.686 54.6662 384.215 55.0555 384.602 56.2056 385.783 56.2056 387.665 55.0555 388.846 54.9655 388.942 54.8405 388.998 54.709 389Z" stroke="#F2F2F2" stroke-width="1.33333" fill="#FFFFFF"/><path d="M34.6925 413.944C31.535 412.363 29.6145 410.293 29.6145 408.029 29.6145 405.717 31.7705 403.453 35.4725 401.776 35.317 401.479 35.1862 401.17 35.0815 400.851 30.9445 402.71 28.6145 405.266 28.6145 408.029 28.6145 410.792 30.921 413.269 34.704 415.059 34.6417 414.69 34.6377 414.314 34.6925 413.944Z" stroke="#F2F2F2" stroke-width="1.33333" fill="#FFFFFF"/><path d="M65.316 401.021C65.366 401.132 65.416 401.242 65.461 401.355L65.496 401.45 65.5545 401.628C65.987 402.001 66.3667 402.432 66.6835 402.907 69.0515 404.404 70.3835 406.198 70.3835 408.029 70.3855 412.975 61.2405 417 50 417 46.0889 417.034 42.1936 416.499 38.4365 415.411 38.4401 415.754 38.3427 416.089 38.1565 416.376 42.0042 417.492 45.9941 418.038 50 418 61.992 418 71.3855 413.62 71.3855 408.029 71.3855 405.339 69.2 402.858 65.316 401.021Z" stroke="#F2F2F2" stroke-width="1.33333" fill="#FFFFFF"/><path d="M61.5 411.375C58.7385 411.375 56.5 409.136 56.5 406.375 56.5 403.614 58.7385 401.375 61.5 401.375 64.2615 401.375 66.5 403.614 66.5 406.375 66.4969 409.135 64.2601 411.372 61.5 411.375ZM61.5 402.375C59.2909 402.375 57.5 404.166 57.5 406.375 57.5 408.584 59.2909 410.375 61.5 410.375 63.7091 410.375 65.5 408.584 65.5 406.375 65.4975 404.167 63.7081 402.378 61.5 402.375Z" stroke="#F2F2F2" stroke-width="1.33333" fill="#FFFFFF"/><path d="M37.424 400.659C36.4734 398.701 37.2905 396.342 39.249 395.392 41.2076 394.441 43.566 395.258 44.5166 397.217 44.7498 397.697 44.883 398.22 44.908 398.754 45.244 398.757 45.5785 398.771 45.908 398.796 45.8329 396.067 43.5605 393.917 40.8324 393.992 38.1043 394.067 35.9537 396.339 36.0288 399.067 36.0493 399.814 36.2386 400.545 36.5825 401.208 36.8541 401.015 37.1347 400.832 37.424 400.659Z" stroke="#F2F2F2" stroke-width="1.33333" fill="#FFFFFF"/><path d="M55.096 395.503C53.6828 392.746 50.8484 391.008 47.75 391 45.8079 390.995 43.9273 391.68 42.4445 392.935 42.834 393.029 43.2134 393.161 43.5775 393.329 44.7964 392.463 46.2549 391.999 47.75 392 50.3085 392.007 52.6754 393.357 53.984 395.556 53.2618 395.626 52.5494 395.775 51.8595 396 50.3175 394.023 47.584 393.427 45.3595 394.585 45.4405 394.666 45.5255 394.743 45.602 394.829 45.7517 395 45.8921 395.179 46.0225 395.365 47.6924 394.623 49.6499 395.032 50.882 396.382 50.2323 396.675 49.6162 397.037 49.0445 397.462 48.393 397.06 47.6157 396.913 46.862 397.048 46.9651 397.369 47.0418 397.697 47.0915 398.03 47.4676 397.961 47.8557 398.006 48.2065 398.158 47.5801 398.74 47.0302 399.4 46.57 400.121 46.3945 400.099 46.22 400.072 46.043 400.056 45.62 400.019 45.1845 400 44.75 400 42.0562 399.953 39.4161 400.756 37.2045 402.295 36.6175 402.721 36.0843 403.217 35.6165 403.771 34.5934 404.944 34.0205 406.443 34 408 34.0001 408.259 34.0168 408.518 34.05 408.775 34.1726 409.755 35.0022 410.493 35.99 410.5L36.09 410.5C36.6376 410.504 37.1598 410.269 37.5205 409.857 37.9104 409.409 38.0895 408.816 38.0125 408.228 38.0038 408.152 37.9997 408.076 38 408 38 406.112 40.8865 404 44.75 404 48.6135 404 51.5 406.112 51.5 408 51.5 409.888 48.6135 412 44.75 412 43.8595 412 42.9135 411.909 42 411.821 40.153 411.643 38.5575 411.49 37.532 412.038 36.7748 412.408 36.21 413.081 35.9775 413.892 35.8129 414.505 35.9176 415.16 36.2655 415.691 36.4212 415.92 36.7323 415.978 36.9604 415.823 37.1831 415.67 37.2451 415.369 37.1005 415.142 36.9097 414.845 36.8539 414.482 36.947 414.142 37.1105 413.604 37.4928 413.161 38 412.919 38.759 412.513 40.2845 412.66 41.9 412.816 42.8385 412.906 43.809 413 44.75 413 49.3855 413 52.5 410.414 52.5 408 52.5 405.586 49.3855 403 44.75 403 40.1145 403 37 405.586 37 408 37.0002 408.117 37.0074 408.234 37.0215 408.35 37.0631 408.655 36.9721 408.963 36.7715 409.196 36.5992 409.392 36.3506 409.503 36.09 409.501L35.99 409.501C35.5041 409.496 35.0975 409.131 35.04 408.648 35.0129 408.433 34.9995 408.217 35 408 35.0219 406.678 35.5121 405.407 36.3835 404.413 36.7995 403.92 37.2737 403.479 37.7955 403.1 39.8358 401.687 42.2689 400.953 44.75 401 45.155 401 45.5605 401.018 45.956 401.053 50.8265 401.487 54.5 404.473 54.5 408 54.4664 409.535 53.8179 410.992 52.7 412.045 52.5053 412.241 52.5065 412.558 52.7025 412.753 52.8986 412.947 53.2153 412.946 53.41 412.75 54.7158 411.511 55.4689 409.8 55.5 408 55.4518 406.104 54.6169 404.315 53.1955 403.06 54.1026 402.375 55.3353 402.313 56.3065 402.903 56.4946 402.626 56.7044 402.365 56.934 402.121 55.5317 401.2 53.6909 401.312 52.4105 402.396 51.8727 401.988 51.2972 401.631 50.692 401.332 52.8246 399.114 56.2938 398.881 58.704 400.793 59.0446 400.621 59.4003 400.482 59.7665 400.375 56.9493 397.747 52.535 397.9 49.9069 400.717 49.848 400.78 49.7905 400.844 49.734 400.909 49.0584 400.649 48.3622 400.445 47.6525 400.3 50.5266 396.241 56.1474 395.28 60.2068 398.154 60.9961 398.713 61.6902 399.395 62.2625 400.174 62.7454 400.234 63.2196 400.35 63.675 400.521 61.9175 397.436 58.6469 395.523 55.096 395.503Z" stroke="#F2F2F2" stroke-width="1.33333" fill="#FFFFFF"/></g></svg>