<svg width="77" height="76" xmlns="http://www.w3.org/2000/svg" xmlns:xlink="http://www.w3.org/1999/xlink" overflow="hidden"><defs><clipPath id="clip0"><rect x="26" y="138" width="77" height="76"/></clipPath></defs><g clip-path="url(#clip0)" transform="translate(-26 -138)"><path d="M60.7213 33.0088C64.7801 47.299 56.4858 62.1738 42.1956 66.2326 27.9054 70.2913 13.0306 61.9971 8.97188 47.7069 4.91308 33.4166 13.2073 18.5419 27.4975 14.4831 32.8215 12.971 38.4824 13.1379 43.7079 14.9612L45.7331 9.79379C42.3243 8.58008 38.7362 7.94635 35.1179 7.91896 35.0216 7.91825 34.9279 7.91746 34.8322 7.91746 16.9065 7.91754 2.37488 22.4492 2.37493 40.3749 2.37497 58.1922 16.738 72.6786 34.5547 72.831 34.6516 72.8317 34.7471 72.8325 34.8438 72.8325 52.775 72.8227 67.3031 58.2787 67.2933 40.3475 67.2916 37.2017 66.8327 34.0728 65.9309 31.059ZM56.4769 62.3948C50.7176 68.0867 42.9407 71.2697 34.8433 71.2492 34.7517 71.2492 34.6601 71.2484 34.5684 71.2477 17.5178 71.0982 3.81678 57.1548 3.96627 40.1042 4.11482 23.1619 17.8892 9.50459 34.8321 9.50079 34.9226 9.50079 35.0134 9.50158 35.1038 9.5023 37.9972 9.52628 40.8727 9.95743 43.6459 10.783L42.7837 13.009C27.6699 8.62861 11.8668 17.3297 7.48644 32.4435 3.10606 47.5572 11.8072 63.3604 26.9209 67.7408 29.4137 68.4633 31.9936 68.8418 34.5889 68.8657 34.674 68.8665 34.7583 68.8665 34.8429 68.8665 50.55 68.893 63.3044 56.1813 63.3309 40.4743 63.3345 38.2977 63.0883 36.128 62.5971 34.0076L64.8454 33.1854C65.446 35.625 65.736 38.1306 65.7083 40.6429 65.6598 48.8355 62.3357 56.6681 56.4769 62.3948Z" fill="#FFFFFF" transform="matrix(1.01316 0 0 1 26 138)"/><path d="M37.8059 17.7492C36.2004 16.144 33.5976 16.1443 31.9924 17.7498 30.3873 19.3553 30.3876 21.9581 31.9931 23.5632 32.7538 24.3238 33.7824 24.7559 34.858 24.7667 34.8812 24.7667 34.9044 24.7675 34.9276 24.7675 35.9992 24.7716 37.0289 24.3513 37.7916 23.5986 39.4079 21.9861 39.4143 19.3696 37.8059 17.7492ZM36.6817 22.4698C36.213 22.9549 35.5581 23.2149 34.8842 23.1834 34.2007 23.1728 33.5492 22.8918 33.0724 22.4018 32.0756 21.4057 32.0733 19.7908 33.067 18.7918 33.5356 18.3319 34.1666 18.0755 34.8231 18.0782 35.5208 18.0787 36.1889 18.3602 36.6767 18.8591 37.6734 19.8555 37.6755 21.4706 36.6814 22.4697Z" fill="#FFFFFF" transform="matrix(1.01316 0 0 1 26 138)"/><path d="M40.3073 61.5861C41.0752 62.373 42.1233 62.8241 43.2227 62.8408 43.2459 62.8408 43.2691 62.8416 43.2923 62.8416 44.3639 62.8456 45.3935 62.4254 46.1563 61.6727 47.7756 60.0329 47.759 57.3909 46.1192 55.7717 45.3551 55.017 44.3294 54.5861 43.2556 54.5686 42.1598 54.545 41.1013 54.9665 40.3216 55.7367 38.7052 57.3492 38.6988 59.9657 40.3073 61.5861ZM41.4315 56.8655C41.8991 56.4048 42.5301 56.148 43.1864 56.1511 43.2004 56.1511 43.215 56.1511 43.229 56.1519 43.9126 56.1624 44.564 56.4435 45.0408 56.9335 46.0373 57.9299 46.0396 59.5448 45.0458 60.544 44.5731 61.0228 43.9212 61.2816 43.2488 61.2575 42.5651 61.247 41.9137 60.9659 41.4369 60.4759 40.4402 59.4796 40.4379 57.8646 41.4318 56.8654Z" fill="#FFFFFF" transform="matrix(1.01316 0 0 1 26 138)"/><path d="M23.7179 25.7833C22.4139 24.4779 20.2987 24.4767 18.9932 25.7807 17.6878 27.0847 17.6866 29.1999 18.9906 30.5054 19.6087 31.1242 20.445 31.4759 21.3196 31.485 21.3381 31.4858 21.3571 31.4858 21.3756 31.4858 22.2469 31.489 23.0839 31.1475 23.7042 30.5358 25.0179 29.2261 25.024 27.1005 23.7179 25.7833ZM22.5942 29.4069C21.8867 30.0868 20.7619 30.0644 20.0819 29.3569 20.0817 29.3568 20.0817 29.3567 20.0816 29.3566 19.3871 28.6641 19.3842 27.5401 20.075 26.844 20.4005 26.5246 20.839 26.3466 21.295 26.3484 21.7818 26.3488 22.2478 26.5453 22.588 26.8935 23.2823 27.5864 23.2851 28.7105 22.5942 29.4069Z" fill="#FFFFFF" transform="matrix(1.01316 0 0 1 26 138)"/><path d="M57.6146 45.8719C58.9305 44.5414 58.9186 42.396 57.5881 41.0801 56.9673 40.4661 56.1334 40.1155 55.2605 40.1013 55.2419 40.1005 55.2229 40.1005 55.2044 40.1005 54.3332 40.0973 53.4961 40.4388 52.8757 41.0505 51.5597 42.3797 51.5702 44.524 52.8992 45.84 53.5341 46.4686 54.3915 46.8209 55.2848 46.8203 56.1558 46.8228 56.993 46.4821 57.6146 45.8719ZM53.9917 44.6928C53.2975 43.9999 53.2947 42.8758 53.9855 42.1794 54.3106 41.8599 54.7488 41.6818 55.2047 41.6839L55.2346 41.6839C55.7114 41.6916 56.1657 41.8879 56.4982 42.2297 57.1929 42.9077 57.2064 44.0204 56.5284 44.715 55.8504 45.4096 54.7377 45.4231 54.0431 44.7452 54.0256 44.7281 54.0084 44.7106 53.9917 44.6928Z" fill="#FFFFFF" transform="matrix(1.01316 0 0 1 26 138)"/><path d="M30.6983 42.4694C30.0749 41.8302 29.2238 41.4642 28.3312 41.4512 27.4394 41.4252 26.5765 41.7688 25.9466 42.4006 24.6305 43.7297 24.641 45.874 25.9701 47.1901 26.6048 47.8186 27.4623 48.1709 28.3556 48.1703 29.2266 48.1727 30.0635 47.8319 30.685 47.2216 31.9985 45.9119 32.0044 43.7864 30.6983 42.4694ZM29.5753 46.0922C28.856 46.776 27.7185 46.7473 27.0347 46.028 26.3669 45.3255 26.3764 44.2201 27.0562 43.5293 27.3814 43.2097 27.8197 43.0316 28.2757 43.0337L28.3051 43.0337C28.7819 43.0415 29.2363 43.2377 29.5688 43.5796 30.2633 44.2721 30.2663 45.3961 29.5753 46.0922Z" fill="#FFFFFF" transform="matrix(1.01316 0 0 1 26 138)"/><path d="M42.6451 50.67C44.4552 50.6398 45.9064 49.1627 45.9046 47.3524 45.9176 45.5073 44.4325 44.0011 42.5875 43.988 40.7424 43.975 39.2362 45.4602 39.2231 47.3053 39.2101 49.146 40.6886 50.6504 42.5292 50.6694 42.5477 50.6705 42.6251 50.6704 42.6451 50.67ZM41.2849 46.0288C41.6104 45.7094 42.0488 45.5314 42.5048 45.5332 43.5069 45.5369 44.3182 46.3487 44.3213 47.3508 44.3233 47.8171 44.1366 48.2644 43.8037 48.5908 43.4651 48.9083 43.0189 49.0856 42.5547 49.0872 42.078 49.0792 41.6238 48.8829 41.2914 48.541 40.5972 47.8485 40.5943 46.7249 41.2849 46.0288Z" fill="#FFFFFF" transform="matrix(1.01316 0 0 1 26 138)"/><path d="M24.2336 60.5973C24.8712 61.248 25.7441 61.6145 26.6553 61.6139 28.4839 61.6191 29.9706 60.141 29.9758 58.3123 29.9758 58.3077 29.9758 58.303 29.9758 58.2983 29.989 56.4319 28.4865 54.9081 26.6201 54.895 25.735 54.8888 24.8829 55.23 24.2467 55.8453 23.6103 56.4682 23.2528 57.3219 23.2555 58.2124 23.2535 59.1052 23.6049 59.9626 24.2329 60.5973ZM25.3565 56.9737C25.6962 56.6582 26.1418 56.4814 26.6055 56.4781 27.5959 56.4989 28.389 57.3059 28.3925 58.2965 28.3945 58.7628 28.2078 59.21 27.8749 59.5366 27.167 60.2154 26.0433 60.1933 25.3626 59.4871 25.0267 59.1485 24.8384 58.6908 24.8389 58.2138 24.8371 57.7476 25.0237 57.3004 25.3565 56.9737Z" fill="#FFFFFF" transform="matrix(1.01316 0 0 1 26 138)"/><path d="M33.1955 37.9358C34.0668 37.9393 34.9039 37.5974 35.5237 36.9849 36.8698 35.6918 36.9128 33.5523 35.6197 32.2062 34.3267 30.86 32.1871 30.817 30.841 32.1101 29.4948 33.4032 29.4518 35.5427 30.7449 36.8889 30.7539 36.8982 30.763 36.9076 30.7721 36.9168L30.7725 36.9168C31.3962 37.5555 32.247 37.9215 33.1396 37.9351 33.1579 37.9351 33.1768 37.9358 33.1955 37.9358ZM31.8955 33.2933C32.2292 32.9685 32.6787 32.7902 33.1444 32.7977 33.6211 32.8052 34.0755 33.0012 34.4081 33.3428 35.1026 34.0357 35.1051 35.1601 34.4138 35.8562 34.0847 36.188 33.6322 36.3676 33.1652 36.3517 32.6884 36.3442 32.2339 36.1483 31.9012 35.8067 31.2069 35.1137 31.2043 33.9895 31.8955 33.2933Z" fill="#FFFFFF" transform="matrix(1.01316 0 0 1 26 138)"/><path d="M73.6738 23.3853C69.8011 14.0489 62.3969 6.62038 53.0733 2.71692 51.624 2.07002 49.9247 2.72051 49.2778 4.16981 49.2497 4.23295 49.2238 4.29708 49.2002 4.36208 48.6667 5.81676 49.3341 7.43786 50.737 8.09542L38.6238 37.8276 68.3141 25.7315C68.4633 26.0557 68.6723 26.3489 68.9301 26.5958 69.4889 27.1515 70.2441 27.4643 71.0321 27.4666 71.3875 27.4668 71.74 27.4029 72.0727 27.278L72.1071 27.265 72.1408 27.2505C73.6148 26.5904 74.2947 24.8762 73.6738 23.3853ZM45.538 25.054C46.358 24.6108 47.382 24.9162 47.8253 25.7361 47.9588 25.9831 48.0286 26.2594 48.0284 26.5401 48.027 27.4733 47.2695 28.2287 46.3363 28.2274 45.5996 28.2264 44.9485 27.7481 44.7271 27.0454ZM41.5091 34.9423 44.0008 28.8268C44.0093 28.8355 44.0167 28.8456 44.0251 28.8541 45.3023 30.1329 47.3745 30.1342 48.6533 28.8568 49.9321 27.5795 49.9333 25.5073 48.656 24.2286 48.0236 23.5955 47.1596 23.2489 46.265 23.2695L52.1815 8.7472C58.9846 11.9806 64.457 17.4717 67.6673 24.2858ZM71.5169 25.7953C71.0075 25.9859 70.4338 25.8611 70.0496 25.4762 69.9086 25.3554 69.7991 25.2022 69.7306 25.0297 66.2815 16.7544 59.717 10.167 51.4537 6.68895 50.7654 6.39071 50.4295 5.60703 50.6882 4.90287 50.873 4.39193 51.3577 4.05126 51.901 4.05056 52.088 4.05091 52.2726 4.0914 52.4425 4.16931 61.3956 7.91186 68.5047 15.044 72.2184 24.009 72.5019 24.6962 72.1923 25.4847 71.5169 25.7953Z" fill="#FFFFFF" transform="matrix(1.01316 0 0 1 26 138)"/><path d="M56.472 12.6527C55.1941 11.3746 53.1219 11.3744 51.8437 12.6523 50.5656 13.9302 50.5653 16.0024 51.8433 17.2806 53.1212 18.5587 55.1934 18.559 56.4716 17.281 56.4717 17.2808 56.4718 17.2807 56.472 17.2806L56.4724 17.2806C57.7502 16.0025 57.75 13.9306 56.472 12.6527ZM55.3525 16.1612 55.3525 16.1612C54.6843 16.7997 53.6321 16.7997 52.9639 16.1612 52.3042 15.5015 52.3041 14.4319 52.9638 13.7722 53.6235 13.1125 54.6931 13.1124 55.3528 13.7721 56.0125 14.4318 56.0126 15.5013 55.3529 16.1611 55.3529 16.1611 55.3528 16.1612 55.3528 16.1612Z" fill="#FFFFFF" transform="matrix(1.01316 0 0 1 26 138)"/><path d="M55.1043 21.4399C53.8264 22.718 53.8265 24.79 55.1045 26.0679 56.3825 27.3459 58.4546 27.3458 59.7325 26.0678 61.0103 24.7898 61.0103 22.7179 59.7325 21.4399 58.4537 20.1637 56.3831 20.1637 55.1043 21.4399ZM58.613 24.9483C57.9533 25.6074 56.8843 25.6069 56.2252 24.9472 55.5661 24.2875 55.5665 23.2185 56.2262 22.5594 56.8855 21.9007 57.9537 21.9007 58.613 22.5594 59.2715 23.2197 59.2715 24.2881 58.613 24.9483Z" fill="#FFFFFF" transform="matrix(1.01316 0 0 1 26 138)"/><path d="M17.2583 40.0781C18.6574 40.0781 19.7917 41.2123 19.7917 42.6115 19.7917 44.0106 18.6574 45.1448 17.2583 45.1448 15.8592 45.1448 14.725 44.0106 14.725 42.6115 14.7266 41.213 15.8599 40.0797 17.2583 40.0781M17.2583 38.4948C14.9847 38.4948 13.1417 40.3379 13.1417 42.6115 13.1417 44.885 14.9847 46.7281 17.2583 46.7281 19.5319 46.7281 21.375 44.885 21.375 42.6115 21.375 40.3379 19.5319 38.4948 17.2583 38.4948Z" fill="#FFFFFF" transform="matrix(1.01316 0 0 1 26 138)"/></g></svg>