<svg width="48" height="48" xmlns="http://www.w3.org/2000/svg" xmlns:xlink="http://www.w3.org/1999/xlink" overflow="hidden"><defs><clipPath id="clip0"><rect x="26" y="298" width="48" height="48"/></clipPath></defs><g clip-path="url(#clip0)" transform="translate(-26 -298)"><path d="M67.5 311.75C67.4998 310.155 66.3409 308.796 64.7657 308.544 64.2706 307.312 63.0778 306.504 61.75 306.5 60.9518 306.502 60.1827 306.8 59.5913 307.336 59.2706 306.98 58.8822 306.693 58.4487 306.489 58.3644 304.479 56.6668 302.919 54.6572 303.003 53.2935 303.06 52.0764 303.875 51.5037 305.114 50.9709 305.06 50.4328 305.127 49.9291 305.309 49.4062 304.933 48.7785 304.731 48.1346 304.731 47.9129 304.731 47.6918 304.755 47.4754 304.803 46.7703 303.255 44.9437 302.572 43.3958 303.277 42.5203 303.676 41.8815 304.461 41.6688 305.399 40.0132 305.77 38.972 307.414 39.3433 309.069 39.3433 309.069 39.3433 309.069 39.3433 309.069 37.8269 309.359 36.679 310.607 36.5179 312.143 34.6665 312.68 33.6009 314.616 34.1379 316.467 34.2484 316.848 34.423 317.208 34.6543 317.53L38.5766 341 61.43 341 65.5394 316.41C65.8411 315.909 66.0004 315.335 66 314.75 66 314.665 65.9966 314.579 65.9893 314.493 66.9332 313.901 67.5045 312.864 67.5 311.75ZM59.8614 309C61.1875 308.999 62.2631 310.074 62.2636 311.4 62.264 312.221 61.8451 312.985 61.1529 313.426L60.7803 313.665 60.9717 314.064C61.4293 315.01 61.2104 316.145 60.4336 316.854 59.5127 316.98 57.8467 317.164 56.898 317.253 56.9929 317.113 57.0666 316.961 57.1167 316.799 57.4417 315.749 57.1672 314.605 56.4009 313.817 57.1117 312.305 56.4627 310.503 54.951 309.792 54.6919 309.671 54.4167 309.586 54.1339 309.542 55.1049 308.743 56.5293 308.838 57.3862 309.758L57.75 310.144 58.1138 309.758C58.5654 309.273 59.1987 308.998 59.8614 309ZM50.5069 317.5 50.2622 317.5C51.2534 315.76 50.6847 313.547 48.9772 312.5 48.959 312.224 48.91 311.951 48.8308 311.685 49.5023 310.98 50.5835 310.859 51.3947 311.398L51.7797 311.651 52.0639 311.289C52.7511 310.406 54.0234 310.248 54.9058 310.935 55.7388 311.584 55.9336 312.763 55.3535 313.645L55.1 314.03 55.4628 314.314C56.3428 314.986 56.512 316.243 55.8409 317.123 55.7841 317.197 55.7223 317.267 55.6558 317.333 53.9895 317.442 52.2795 317.5 50.5069 317.5ZM41.1282 317.047C40.3659 315.755 40.7957 314.089 42.0882 313.326 42.1399 313.296 42.1925 313.267 42.2461 313.24L42.5186 313.101 42.5156 312.734C42.5194 311.224 43.7467 310.003 45.2568 310.007 46.7584 310.01 47.9761 311.224 47.9844 312.726L47.9741 313.097 48.2541 313.24C49.5926 313.913 50.1325 315.543 49.4601 316.881 49.3482 317.104 49.2059 317.311 49.0376 317.495 46.395 317.487 43.7547 317.337 41.1282 317.047ZM50.7253 306.137C50.8632 306.111 51.0029 306.097 51.1431 306.095 51.3351 306.096 51.5265 306.117 51.7139 306.159L52.1567 306.257 52.2973 305.826C52.7479 304.438 54.2382 303.678 55.6261 304.129 56.7155 304.482 57.453 305.498 57.4524 306.643 57.4524 306.676 57.4499 306.709 57.4473 306.742L57.423 307.169 57.778 307.294C58.2377 307.456 58.6432 307.744 58.9491 308.123L58.9452 308.136C58.5105 308.253 58.104 308.457 57.7502 308.736 56.2879 307.572 54.1593 307.815 52.9958 309.277 52.9026 309.394 52.8174 309.517 52.7405 309.645 52.2999 309.787 51.8978 310.028 51.5655 310.35 51.2117 310.183 50.8288 310.087 50.4382 310.067 50.3954 310.064 50.3123 310.063 50.2816 310.063 50.2749 310.063 50.2738 310.059 50.2785 310.055 51.3536 309.028 51.5416 307.379 50.7254 306.137ZM42.1543 306.332 42.5595 306.29 42.6011 305.884C42.7099 304.74 43.7259 303.901 44.8703 304.009 45.7389 304.092 46.4638 304.708 46.6861 305.551L46.833 306.095 47.355 305.885C48.4284 305.453 49.6483 305.974 50.0798 307.047 50.5114 308.12 49.9911 309.34 48.9177 309.772 48.6689 309.872 48.4032 309.923 48.135 309.923 48.1176 309.922 48.1004 309.921 48.0833 309.918L47.6582 309.888C46.0943 308.556 43.7469 308.744 42.4153 310.308 42.3648 310.367 42.3163 310.428 42.2697 310.49 41.1191 310.444 40.2239 309.474 40.2701 308.323 40.3119 307.282 41.1166 306.431 42.1544 306.332ZM37.085 313.038 37.5 312.923 37.5 312.5C37.5042 311.226 38.4671 310.16 39.7339 310.027 40.184 310.753 40.9138 311.261 41.751 311.432 41.6227 311.775 41.5458 312.135 41.5229 312.5 40.4199 313.178 39.7488 314.38 39.7514 315.675 39.7533 316.096 39.8279 316.514 39.9721 316.909 38.3121 316.692 36.6898 316.415 35.105 316.077L35.0663 316.069C34.7509 314.728 35.5818 313.386 36.9222 313.071 36.9761 313.058 37.0304 313.047 37.085 313.038ZM39.4234 340 35.6138 317.204C37.7432 317.63 39.8931 317.947 42.055 318.153L43.9547 340ZM49.5 340 44.9584 340 43.0663 318.241C45.135 318.411 47.27 318.5 49.5 318.5ZM50.5 340 50.5 318.5 50.5069 318.5C52.7345 318.5 54.8672 318.411 56.9337 318.241L55.0416 340ZM60.5835 340 56.0453 340 57.945 318.154C60.1092 317.948 62.2614 317.631 64.3931 317.204ZM65.23 313.772 64.8843 313.94 64.9575 314.317C64.9855 314.46 64.9997 314.605 65 314.75 64.9991 315.265 64.8181 315.764 64.4884 316.159 63.611 316.341 62.7234 316.504 61.8256 316.648 62.2509 315.838 62.3254 314.888 62.0317 314.021 63.4778 312.824 63.6801 310.682 62.4836 309.236 61.9357 308.574 61.1572 308.144 60.305 308.032 61.2486 307.232 62.6626 307.347 63.4633 308.291 63.6736 308.539 63.8274 308.829 63.9142 309.142L64.0109 309.488 64.3694 309.507C65.608 309.571 66.5605 310.627 66.4966 311.866 66.4544 312.685 65.9688 313.416 65.23 313.772Z" stroke="#F2F2F2" stroke-width="1.33333" fill="#FFFFFF"/></g></svg>